<mxfile host="Electron" agent="Mozilla/5.0 (Windows NT 10.0; Win64; x64) AppleWebKit/537.36 (KHTML, like Gecko) draw.io/24.7.5 Chrome/126.0.6478.183 Electron/31.3.0 Safari/537.36" version="24.7.5">
  <diagram name="PÃ¡gina-1" id="1xBareTTEV16NQSz-xdA">
    <mxGraphModel dx="8850" dy="5355" grid="1" gridSize="10" guides="1" tooltips="1" connect="1" arrows="1" fold="1" page="0" pageScale="1" pageWidth="827" pageHeight="1169" math="0" shadow="0">
      <root>
        <mxCell id="0" />
        <mxCell id="1" parent="0" />
        <mxCell id="qI_RE6lxmuwwauBpwvIy-51" value="" style="whiteSpace=wrap;html=1;aspect=fixed;" parent="1" vertex="1">
          <mxGeometry x="-550" y="-937" width="310" height="310" as="geometry" />
        </mxCell>
        <mxCell id="uV_j3sn_rLNY4ESM9PXW-31" style="edgeStyle=none;curved=1;rounded=0;orthogonalLoop=1;jettySize=auto;html=1;exitX=0.75;exitY=0;exitDx=0;exitDy=0;fontSize=12;startSize=8;endSize=8;" parent="1" edge="1">
          <mxGeometry relative="1" as="geometry">
            <mxPoint x="-1420" y="-550" as="sourcePoint" />
            <mxPoint x="-1420" y="-550" as="targetPoint" />
          </mxGeometry>
        </mxCell>
        <mxCell id="uV_j3sn_rLNY4ESM9PXW-42" value="Conocer nombre&lt;div&gt;Conocer civilizacion&lt;/div&gt;&lt;div&gt;conocer recursos&lt;/div&gt;&lt;div&gt;conocer habitantes&lt;/div&gt;" style="text;html=1;align=center;verticalAlign=middle;resizable=0;points=[];autosize=1;strokeColor=none;fillColor=none;fontSize=16;" parent="1" vertex="1">
          <mxGeometry x="-550" y="-797" width="160" height="90" as="geometry" />
        </mxCell>
        <mxCell id="qI_RE6lxmuwwauBpwvIy-3" value="" style="whiteSpace=wrap;html=1;aspect=fixed;" parent="1" vertex="1">
          <mxGeometry x="-1390" y="-1700" width="310" height="310" as="geometry" />
        </mxCell>
        <mxCell id="qI_RE6lxmuwwauBpwvIy-4" value="" style="endArrow=none;html=1;rounded=0;fontSize=12;startSize=8;endSize=8;curved=1;entryX=0;entryY=0.188;entryDx=0;entryDy=0;entryPerimeter=0;exitX=0.998;exitY=0.187;exitDx=0;exitDy=0;exitPerimeter=0;" parent="1" source="qI_RE6lxmuwwauBpwvIy-3" target="qI_RE6lxmuwwauBpwvIy-3" edge="1">
          <mxGeometry width="50" height="50" relative="1" as="geometry">
            <mxPoint x="-1075" y="-1650" as="sourcePoint" />
            <mxPoint x="-1420" y="-1520" as="targetPoint" />
          </mxGeometry>
        </mxCell>
        <mxCell id="qI_RE6lxmuwwauBpwvIy-5" value="" style="endArrow=none;html=1;rounded=0;fontSize=12;startSize=8;endSize=8;curved=1;exitX=0.5;exitY=1;exitDx=0;exitDy=0;" parent="1" source="qI_RE6lxmuwwauBpwvIy-3" edge="1">
          <mxGeometry width="50" height="50" relative="1" as="geometry">
            <mxPoint x="-1470" y="-1470" as="sourcePoint" />
            <mxPoint x="-1235" y="-1640" as="targetPoint" />
          </mxGeometry>
        </mxCell>
        <mxCell id="qI_RE6lxmuwwauBpwvIy-10" value="&lt;div style=&quot;&quot;&gt;&lt;span style=&quot;background-color: initial; text-wrap: nowrap; font-size: 11px;&quot;&gt;Conoce la cantidad de recursos&lt;/span&gt;&lt;/div&gt;&lt;div style=&quot;&quot;&gt;&lt;span style=&quot;background-color: initial; text-wrap: nowrap; font-size: 11px;&quot;&gt;&amp;nbsp;&lt;/span&gt;&lt;span style=&quot;background-color: initial; text-wrap: nowrap; font-size: 11px;&quot;&gt;&amp;nbsp;a&amp;nbsp;&lt;/span&gt;&lt;/div&gt;&lt;div&gt;&lt;div style=&quot;text-wrap: nowrap; font-size: 11px;&quot;&gt;&lt;font style=&quot;font-size: 11px;&quot;&gt;almacenar&amp;nbsp;&lt;/font&gt;&lt;/div&gt;&lt;/div&gt;" style="text;html=1;align=left;verticalAlign=middle;whiteSpace=wrap;rounded=0;fontSize=16;" parent="1" vertex="1">
          <mxGeometry x="-1390" y="-1640" width="30" height="60" as="geometry" />
        </mxCell>
        <mxCell id="qI_RE6lxmuwwauBpwvIy-11" value="&lt;span style=&quot;font-size: 12px;&quot;&gt;StoneStorage&lt;/span&gt;" style="text;html=1;align=center;verticalAlign=middle;whiteSpace=wrap;rounded=0;fontSize=16;" parent="1" vertex="1">
          <mxGeometry x="-1265" y="-1690" width="60" height="30" as="geometry" />
        </mxCell>
        <mxCell id="qI_RE6lxmuwwauBpwvIy-13" value="" style="whiteSpace=wrap;html=1;aspect=fixed;" parent="1" vertex="1">
          <mxGeometry x="-1020" y="-1700" width="310" height="310" as="geometry" />
        </mxCell>
        <mxCell id="qI_RE6lxmuwwauBpwvIy-14" value="" style="endArrow=none;html=1;rounded=0;fontSize=12;startSize=8;endSize=8;curved=1;entryX=0;entryY=0.188;entryDx=0;entryDy=0;entryPerimeter=0;exitX=0.998;exitY=0.187;exitDx=0;exitDy=0;exitPerimeter=0;" parent="1" source="qI_RE6lxmuwwauBpwvIy-13" target="qI_RE6lxmuwwauBpwvIy-13" edge="1">
          <mxGeometry width="50" height="50" relative="1" as="geometry">
            <mxPoint x="-705" y="-1650" as="sourcePoint" />
            <mxPoint x="-1050" y="-1520" as="targetPoint" />
          </mxGeometry>
        </mxCell>
        <mxCell id="qI_RE6lxmuwwauBpwvIy-15" value="" style="endArrow=none;html=1;rounded=0;fontSize=12;startSize=8;endSize=8;curved=1;exitX=0.5;exitY=1;exitDx=0;exitDy=0;" parent="1" source="qI_RE6lxmuwwauBpwvIy-13" edge="1">
          <mxGeometry width="50" height="50" relative="1" as="geometry">
            <mxPoint x="-1100" y="-1470" as="sourcePoint" />
            <mxPoint x="-865" y="-1640" as="targetPoint" />
          </mxGeometry>
        </mxCell>
        <mxCell id="qI_RE6lxmuwwauBpwvIy-16" value="&lt;div style=&quot;&quot;&gt;&lt;span style=&quot;background-color: initial; text-wrap: nowrap; font-size: 11px;&quot;&gt;Conoce la cantidad de recursos&lt;/span&gt;&lt;/div&gt;&lt;div style=&quot;&quot;&gt;&lt;span style=&quot;background-color: initial; text-wrap: nowrap; font-size: 11px;&quot;&gt;&amp;nbsp;&lt;/span&gt;&lt;span style=&quot;background-color: initial; text-wrap: nowrap; font-size: 11px;&quot;&gt;&amp;nbsp;a&amp;nbsp;&lt;/span&gt;&lt;/div&gt;&lt;div&gt;&lt;div style=&quot;text-wrap: nowrap; font-size: 11px;&quot;&gt;&lt;font style=&quot;font-size: 11px;&quot;&gt;almacenar&amp;nbsp;&lt;/font&gt;&lt;/div&gt;&lt;/div&gt;" style="text;html=1;align=left;verticalAlign=middle;whiteSpace=wrap;rounded=0;fontSize=16;" parent="1" vertex="1">
          <mxGeometry x="-1020" y="-1620" width="210" height="110" as="geometry" />
        </mxCell>
        <mxCell id="qI_RE6lxmuwwauBpwvIy-17" value="&lt;span style=&quot;font-size: 12px;&quot;&gt;GoldStorage&lt;/span&gt;" style="text;html=1;align=center;verticalAlign=middle;whiteSpace=wrap;rounded=0;fontSize=16;" parent="1" vertex="1">
          <mxGeometry x="-895" y="-1690" width="60" height="30" as="geometry" />
        </mxCell>
        <mxCell id="qI_RE6lxmuwwauBpwvIy-19" value="" style="whiteSpace=wrap;html=1;aspect=fixed;" parent="1" vertex="1">
          <mxGeometry x="-1760" y="-1700" width="310" height="310" as="geometry" />
        </mxCell>
        <mxCell id="qI_RE6lxmuwwauBpwvIy-20" value="" style="endArrow=none;html=1;rounded=0;fontSize=12;startSize=8;endSize=8;curved=1;entryX=0;entryY=0.188;entryDx=0;entryDy=0;entryPerimeter=0;exitX=0.998;exitY=0.187;exitDx=0;exitDy=0;exitPerimeter=0;" parent="1" source="qI_RE6lxmuwwauBpwvIy-19" target="qI_RE6lxmuwwauBpwvIy-19" edge="1">
          <mxGeometry width="50" height="50" relative="1" as="geometry">
            <mxPoint x="-1445" y="-1650" as="sourcePoint" />
            <mxPoint x="-1790" y="-1520" as="targetPoint" />
          </mxGeometry>
        </mxCell>
        <mxCell id="qI_RE6lxmuwwauBpwvIy-21" value="" style="endArrow=none;html=1;rounded=0;fontSize=12;startSize=8;endSize=8;curved=1;exitX=0.5;exitY=1;exitDx=0;exitDy=0;" parent="1" source="qI_RE6lxmuwwauBpwvIy-19" edge="1">
          <mxGeometry width="50" height="50" relative="1" as="geometry">
            <mxPoint x="-1840" y="-1470" as="sourcePoint" />
            <mxPoint x="-1605" y="-1640" as="targetPoint" />
          </mxGeometry>
        </mxCell>
        <mxCell id="qI_RE6lxmuwwauBpwvIy-22" value="&lt;div style=&quot;&quot;&gt;&lt;span style=&quot;background-color: initial; text-wrap: nowrap; font-size: 11px;&quot;&gt;Conoce la cantidad de recursos&lt;/span&gt;&lt;/div&gt;&lt;div style=&quot;&quot;&gt;&lt;span style=&quot;background-color: initial; text-wrap: nowrap; font-size: 11px;&quot;&gt;&amp;nbsp;&lt;/span&gt;&lt;span style=&quot;background-color: initial; text-wrap: nowrap; font-size: 11px;&quot;&gt;&amp;nbsp;a&amp;nbsp;&lt;/span&gt;&lt;/div&gt;&lt;div&gt;&lt;div style=&quot;text-wrap: nowrap; font-size: 11px;&quot;&gt;&lt;font style=&quot;font-size: 11px;&quot;&gt;almacenar&amp;nbsp;&lt;/font&gt;&lt;/div&gt;&lt;/div&gt;" style="text;html=1;align=left;verticalAlign=middle;whiteSpace=wrap;rounded=0;fontSize=16;" parent="1" vertex="1">
          <mxGeometry x="-1760" y="-1640" width="30" height="60" as="geometry" />
        </mxCell>
        <mxCell id="qI_RE6lxmuwwauBpwvIy-23" value="&lt;span style=&quot;font-size: 12px;&quot;&gt;WoodStorage&lt;/span&gt;" style="text;html=1;align=center;verticalAlign=middle;whiteSpace=wrap;rounded=0;fontSize=16;" parent="1" vertex="1">
          <mxGeometry x="-1635" y="-1690" width="60" height="30" as="geometry" />
        </mxCell>
        <mxCell id="qI_RE6lxmuwwauBpwvIy-25" value="" style="whiteSpace=wrap;html=1;aspect=fixed;" parent="1" vertex="1">
          <mxGeometry x="-570" y="-1700" width="310" height="310" as="geometry" />
        </mxCell>
        <mxCell id="qI_RE6lxmuwwauBpwvIy-26" value="" style="endArrow=none;html=1;rounded=0;fontSize=12;startSize=8;endSize=8;curved=1;entryX=0;entryY=0.188;entryDx=0;entryDy=0;entryPerimeter=0;exitX=0.998;exitY=0.187;exitDx=0;exitDy=0;exitPerimeter=0;" parent="1" source="qI_RE6lxmuwwauBpwvIy-25" target="qI_RE6lxmuwwauBpwvIy-25" edge="1">
          <mxGeometry width="50" height="50" relative="1" as="geometry">
            <mxPoint x="-255" y="-1650" as="sourcePoint" />
            <mxPoint x="-600" y="-1520" as="targetPoint" />
          </mxGeometry>
        </mxCell>
        <mxCell id="qI_RE6lxmuwwauBpwvIy-27" value="" style="endArrow=none;html=1;rounded=0;fontSize=12;startSize=8;endSize=8;curved=1;exitX=0.5;exitY=1;exitDx=0;exitDy=0;" parent="1" source="qI_RE6lxmuwwauBpwvIy-25" edge="1">
          <mxGeometry width="50" height="50" relative="1" as="geometry">
            <mxPoint x="-650" y="-1470" as="sourcePoint" />
            <mxPoint x="-415" y="-1640" as="targetPoint" />
          </mxGeometry>
        </mxCell>
        <mxCell id="qI_RE6lxmuwwauBpwvIy-28" value="&lt;div style=&quot;&quot;&gt;&lt;span style=&quot;background-color: initial; text-wrap: nowrap; font-size: 11px;&quot;&gt;Conoce la cantidad de recursos&lt;/span&gt;&lt;/div&gt;&lt;div style=&quot;&quot;&gt;&lt;span style=&quot;background-color: initial; text-wrap: nowrap; font-size: 11px;&quot;&gt;&amp;nbsp;&lt;/span&gt;&lt;span style=&quot;background-color: initial; text-wrap: nowrap; font-size: 11px;&quot;&gt;&amp;nbsp;a&amp;nbsp;&lt;/span&gt;&lt;/div&gt;&lt;div&gt;&lt;div style=&quot;text-wrap: nowrap; font-size: 11px;&quot;&gt;&lt;font style=&quot;font-size: 11px;&quot;&gt;almacenar&amp;nbsp;&lt;/font&gt;&lt;/div&gt;&lt;/div&gt;" style="text;html=1;align=left;verticalAlign=middle;whiteSpace=wrap;rounded=0;fontSize=16;rotation=0;" parent="1" vertex="1">
          <mxGeometry x="-570" y="-1640" width="170" height="150" as="geometry" />
        </mxCell>
        <mxCell id="qI_RE6lxmuwwauBpwvIy-29" value="&lt;span style=&quot;font-size: 12px;&quot;&gt;Mill&lt;/span&gt;" style="text;html=1;align=center;verticalAlign=middle;whiteSpace=wrap;rounded=0;fontSize=16;" parent="1" vertex="1">
          <mxGeometry x="-445" y="-1690" width="60" height="30" as="geometry" />
        </mxCell>
        <mxCell id="qI_RE6lxmuwwauBpwvIy-31" value="" style="whiteSpace=wrap;html=1;aspect=fixed;" parent="1" vertex="1">
          <mxGeometry x="-550" y="-536" width="310" height="310" as="geometry" />
        </mxCell>
        <mxCell id="qI_RE6lxmuwwauBpwvIy-32" value="" style="endArrow=none;html=1;rounded=0;fontSize=12;startSize=8;endSize=8;curved=1;entryX=0;entryY=0.188;entryDx=0;entryDy=0;entryPerimeter=0;exitX=0.998;exitY=0.187;exitDx=0;exitDy=0;exitPerimeter=0;" parent="1" source="qI_RE6lxmuwwauBpwvIy-31" target="qI_RE6lxmuwwauBpwvIy-31" edge="1">
          <mxGeometry width="50" height="50" relative="1" as="geometry">
            <mxPoint x="-235" y="-486" as="sourcePoint" />
            <mxPoint x="-580" y="-356" as="targetPoint" />
          </mxGeometry>
        </mxCell>
        <mxCell id="qI_RE6lxmuwwauBpwvIy-33" value="" style="endArrow=none;html=1;rounded=0;fontSize=12;startSize=8;endSize=8;curved=1;exitX=0.5;exitY=1;exitDx=0;exitDy=0;" parent="1" source="qI_RE6lxmuwwauBpwvIy-31" edge="1">
          <mxGeometry width="50" height="50" relative="1" as="geometry">
            <mxPoint x="-630" y="-306" as="sourcePoint" />
            <mxPoint x="-395" y="-476" as="targetPoint" />
          </mxGeometry>
        </mxCell>
        <mxCell id="qI_RE6lxmuwwauBpwvIy-35" value="&lt;span style=&quot;font-size: 12px;&quot;&gt;Farm&lt;/span&gt;" style="text;html=1;align=center;verticalAlign=middle;whiteSpace=wrap;rounded=0;fontSize=16;" parent="1" vertex="1">
          <mxGeometry x="-425" y="-526" width="60" height="30" as="geometry" />
        </mxCell>
        <mxCell id="qI_RE6lxmuwwauBpwvIy-37" value="Tiempo de produccion" style="text;html=1;align=center;verticalAlign=middle;whiteSpace=wrap;rounded=0;fontSize=16;" parent="1" vertex="1">
          <mxGeometry x="-500" y="-386" width="60" height="30" as="geometry" />
        </mxCell>
        <mxCell id="qI_RE6lxmuwwauBpwvIy-40" value="" style="whiteSpace=wrap;html=1;aspect=fixed;" parent="1" vertex="1">
          <mxGeometry x="-2170" y="-1700" width="310" height="310" as="geometry" />
        </mxCell>
        <mxCell id="qI_RE6lxmuwwauBpwvIy-41" value="" style="endArrow=none;html=1;rounded=0;fontSize=12;startSize=8;endSize=8;curved=1;entryX=0;entryY=0.188;entryDx=0;entryDy=0;entryPerimeter=0;exitX=0.998;exitY=0.187;exitDx=0;exitDy=0;exitPerimeter=0;" parent="1" source="qI_RE6lxmuwwauBpwvIy-40" target="qI_RE6lxmuwwauBpwvIy-40" edge="1">
          <mxGeometry width="50" height="50" relative="1" as="geometry">
            <mxPoint x="-1855" y="-1650" as="sourcePoint" />
            <mxPoint x="-2200" y="-1520" as="targetPoint" />
          </mxGeometry>
        </mxCell>
        <mxCell id="qI_RE6lxmuwwauBpwvIy-42" value="" style="endArrow=none;html=1;rounded=0;fontSize=12;startSize=8;endSize=8;curved=1;exitX=0.5;exitY=1;exitDx=0;exitDy=0;" parent="1" source="qI_RE6lxmuwwauBpwvIy-40" edge="1">
          <mxGeometry width="50" height="50" relative="1" as="geometry">
            <mxPoint x="-2250" y="-1470" as="sourcePoint" />
            <mxPoint x="-2015" y="-1640" as="targetPoint" />
          </mxGeometry>
        </mxCell>
        <mxCell id="qI_RE6lxmuwwauBpwvIy-43" value="&lt;div style=&quot;&quot;&gt;&lt;span style=&quot;background-color: initial; text-wrap: nowrap; font-size: 11px;&quot;&gt;Conoce la cantidad de recursos&lt;/span&gt;&lt;/div&gt;&lt;div style=&quot;&quot;&gt;&lt;span style=&quot;background-color: initial; text-wrap: nowrap; font-size: 11px;&quot;&gt;&amp;nbsp;&lt;/span&gt;&lt;span style=&quot;background-color: initial; text-wrap: nowrap; font-size: 11px;&quot;&gt;&amp;nbsp;a&amp;nbsp;&lt;/span&gt;&lt;/div&gt;&lt;div&gt;&lt;div style=&quot;text-wrap: nowrap; font-size: 11px;&quot;&gt;&lt;font style=&quot;font-size: 11px;&quot;&gt;almacenar&amp;nbsp;&lt;/font&gt;&lt;/div&gt;&lt;/div&gt;" style="text;html=1;align=left;verticalAlign=middle;whiteSpace=wrap;rounded=0;fontSize=16;" parent="1" vertex="1">
          <mxGeometry x="-2170" y="-1640" width="30" height="60" as="geometry" />
        </mxCell>
        <mxCell id="qI_RE6lxmuwwauBpwvIy-44" value="&lt;span style=&quot;font-size: 12px;&quot;&gt;Resources&lt;/span&gt;" style="text;html=1;align=center;verticalAlign=middle;whiteSpace=wrap;rounded=0;fontSize=16;" parent="1" vertex="1">
          <mxGeometry x="-2045" y="-1690" width="60" height="30" as="geometry" />
        </mxCell>
        <mxCell id="qI_RE6lxmuwwauBpwvIy-47" value="WoodStorage" style="text;html=1;align=center;verticalAlign=middle;whiteSpace=wrap;rounded=0;fontSize=16;" parent="1" vertex="1">
          <mxGeometry x="-1970" y="-1625" width="60" height="30" as="geometry" />
        </mxCell>
        <mxCell id="qI_RE6lxmuwwauBpwvIy-48" value="GoldStorage" style="text;html=1;align=center;verticalAlign=middle;whiteSpace=wrap;rounded=0;fontSize=16;" parent="1" vertex="1">
          <mxGeometry x="-1970" y="-1590" width="60" height="30" as="geometry" />
        </mxCell>
        <mxCell id="qI_RE6lxmuwwauBpwvIy-49" value="StoneStorage" style="text;html=1;align=center;verticalAlign=middle;whiteSpace=wrap;rounded=0;fontSize=16;" parent="1" vertex="1">
          <mxGeometry x="-1980" y="-1550" width="60" height="30" as="geometry" />
        </mxCell>
        <mxCell id="qI_RE6lxmuwwauBpwvIy-50" value="Mill" style="text;html=1;align=center;verticalAlign=middle;whiteSpace=wrap;rounded=0;fontSize=16;" parent="1" vertex="1">
          <mxGeometry x="-1985" y="-1500" width="60" height="30" as="geometry" />
        </mxCell>
        <mxCell id="qI_RE6lxmuwwauBpwvIy-52" value="" style="endArrow=none;html=1;rounded=0;fontSize=12;startSize=8;endSize=8;curved=1;entryX=0;entryY=0.188;entryDx=0;entryDy=0;entryPerimeter=0;exitX=0.998;exitY=0.187;exitDx=0;exitDy=0;exitPerimeter=0;" parent="1" source="qI_RE6lxmuwwauBpwvIy-51" target="qI_RE6lxmuwwauBpwvIy-51" edge="1">
          <mxGeometry width="50" height="50" relative="1" as="geometry">
            <mxPoint x="-235" y="-887" as="sourcePoint" />
            <mxPoint x="-580" y="-757" as="targetPoint" />
          </mxGeometry>
        </mxCell>
        <mxCell id="qI_RE6lxmuwwauBpwvIy-53" value="" style="endArrow=none;html=1;rounded=0;fontSize=12;startSize=8;endSize=8;curved=1;exitX=0.5;exitY=1;exitDx=0;exitDy=0;" parent="1" source="qI_RE6lxmuwwauBpwvIy-51" edge="1">
          <mxGeometry width="50" height="50" relative="1" as="geometry">
            <mxPoint x="-630" y="-707" as="sourcePoint" />
            <mxPoint x="-395" y="-877" as="targetPoint" />
          </mxGeometry>
        </mxCell>
        <mxCell id="qI_RE6lxmuwwauBpwvIy-55" value="&lt;span style=&quot;font-size: 12px;&quot;&gt;Player&lt;/span&gt;" style="text;html=1;align=center;verticalAlign=middle;whiteSpace=wrap;rounded=0;fontSize=16;" parent="1" vertex="1">
          <mxGeometry x="-425" y="-927" width="60" height="30" as="geometry" />
        </mxCell>
        <mxCell id="qI_RE6lxmuwwauBpwvIy-56" value="Resources" style="text;html=1;align=center;verticalAlign=middle;whiteSpace=wrap;rounded=0;fontSize=16;" parent="1" vertex="1">
          <mxGeometry x="-350" y="-797" width="60" height="30" as="geometry" />
        </mxCell>
        <mxCell id="qI_RE6lxmuwwauBpwvIy-57" value="" style="whiteSpace=wrap;html=1;aspect=fixed;" parent="1" vertex="1">
          <mxGeometry x="-1360" y="-110" width="310" height="310" as="geometry" />
        </mxCell>
        <mxCell id="qI_RE6lxmuwwauBpwvIy-58" value="" style="endArrow=none;html=1;rounded=0;fontSize=12;startSize=8;endSize=8;curved=1;entryX=0;entryY=0.188;entryDx=0;entryDy=0;entryPerimeter=0;exitX=0.998;exitY=0.187;exitDx=0;exitDy=0;exitPerimeter=0;" parent="1" source="qI_RE6lxmuwwauBpwvIy-57" target="qI_RE6lxmuwwauBpwvIy-57" edge="1">
          <mxGeometry width="50" height="50" relative="1" as="geometry">
            <mxPoint x="-1045" y="-60" as="sourcePoint" />
            <mxPoint x="-1390" y="70" as="targetPoint" />
          </mxGeometry>
        </mxCell>
        <mxCell id="qI_RE6lxmuwwauBpwvIy-59" value="" style="endArrow=none;html=1;rounded=0;fontSize=12;startSize=8;endSize=8;curved=1;exitX=0.5;exitY=1;exitDx=0;exitDy=0;" parent="1" source="qI_RE6lxmuwwauBpwvIy-57" edge="1">
          <mxGeometry width="50" height="50" relative="1" as="geometry">
            <mxPoint x="-1440" y="120" as="sourcePoint" />
            <mxPoint x="-1205" y="-50" as="targetPoint" />
          </mxGeometry>
        </mxCell>
        <mxCell id="qI_RE6lxmuwwauBpwvIy-60" value="&lt;div style=&quot;&quot;&gt;&lt;br&gt;&lt;/div&gt;" style="text;html=1;align=left;verticalAlign=middle;whiteSpace=wrap;rounded=0;fontSize=16;" parent="1" vertex="1">
          <mxGeometry x="-1360" y="-50" width="30" height="60" as="geometry" />
        </mxCell>
        <mxCell id="qI_RE6lxmuwwauBpwvIy-61" value="&lt;span style=&quot;font-size: 12px;&quot;&gt;CivicCenter&lt;/span&gt;" style="text;html=1;align=center;verticalAlign=middle;whiteSpace=wrap;rounded=0;fontSize=16;" parent="1" vertex="1">
          <mxGeometry x="-1235" y="-100" width="60" height="30" as="geometry" />
        </mxCell>
        <mxCell id="qI_RE6lxmuwwauBpwvIy-63" value="Cantidad de Aldeanos" style="text;html=1;align=center;verticalAlign=middle;whiteSpace=wrap;rounded=0;fontSize=16;" parent="1" vertex="1">
          <mxGeometry x="-1310" y="10" width="60" height="30" as="geometry" />
        </mxCell>
        <mxCell id="qI_RE6lxmuwwauBpwvIy-64" value="CivicCenter" style="text;html=1;align=center;verticalAlign=middle;whiteSpace=wrap;rounded=0;fontSize=16;" parent="1" vertex="1">
          <mxGeometry x="-1985" y="-1450" width="60" height="30" as="geometry" />
        </mxCell>
        <mxCell id="qI_RE6lxmuwwauBpwvIy-65" value="" style="whiteSpace=wrap;html=1;aspect=fixed;" parent="1" vertex="1">
          <mxGeometry x="-2170" y="-1300" width="310" height="310" as="geometry" />
        </mxCell>
        <mxCell id="qI_RE6lxmuwwauBpwvIy-66" value="" style="endArrow=none;html=1;rounded=0;fontSize=12;startSize=8;endSize=8;curved=1;entryX=0;entryY=0.188;entryDx=0;entryDy=0;entryPerimeter=0;exitX=0.998;exitY=0.187;exitDx=0;exitDy=0;exitPerimeter=0;" parent="1" source="qI_RE6lxmuwwauBpwvIy-65" target="qI_RE6lxmuwwauBpwvIy-65" edge="1">
          <mxGeometry width="50" height="50" relative="1" as="geometry">
            <mxPoint x="-1855" y="-1250" as="sourcePoint" />
            <mxPoint x="-2200" y="-1120" as="targetPoint" />
          </mxGeometry>
        </mxCell>
        <mxCell id="qI_RE6lxmuwwauBpwvIy-67" value="" style="endArrow=none;html=1;rounded=0;fontSize=12;startSize=8;endSize=8;curved=1;exitX=0.5;exitY=1;exitDx=0;exitDy=0;" parent="1" source="qI_RE6lxmuwwauBpwvIy-65" edge="1">
          <mxGeometry width="50" height="50" relative="1" as="geometry">
            <mxPoint x="-2250" y="-1070" as="sourcePoint" />
            <mxPoint x="-2015" y="-1240" as="targetPoint" />
          </mxGeometry>
        </mxCell>
        <mxCell id="qI_RE6lxmuwwauBpwvIy-68" value="&lt;div style=&quot;&quot;&gt;&lt;br&gt;&lt;/div&gt;" style="text;html=1;align=left;verticalAlign=middle;whiteSpace=wrap;rounded=0;fontSize=16;" parent="1" vertex="1">
          <mxGeometry x="-2170" y="-1240" width="30" height="60" as="geometry" />
        </mxCell>
        <mxCell id="qI_RE6lxmuwwauBpwvIy-69" value="&lt;span style=&quot;font-size: 12px;&quot;&gt;Villager&lt;/span&gt;" style="text;html=1;align=center;verticalAlign=middle;whiteSpace=wrap;rounded=0;fontSize=16;" parent="1" vertex="1">
          <mxGeometry x="-2045" y="-1290" width="60" height="30" as="geometry" />
        </mxCell>
        <mxCell id="qI_RE6lxmuwwauBpwvIy-70" value="Actions" style="text;html=1;align=center;verticalAlign=middle;whiteSpace=wrap;rounded=0;fontSize=16;" parent="1" vertex="1">
          <mxGeometry x="-1970" y="-1160" width="60" height="30" as="geometry" />
        </mxCell>
        <mxCell id="qI_RE6lxmuwwauBpwvIy-71" value="" style="whiteSpace=wrap;html=1;aspect=fixed;" parent="1" vertex="1">
          <mxGeometry x="-1760" y="-1310" width="310" height="310" as="geometry" />
        </mxCell>
        <mxCell id="qI_RE6lxmuwwauBpwvIy-72" value="" style="endArrow=none;html=1;rounded=0;fontSize=12;startSize=8;endSize=8;curved=1;entryX=0;entryY=0.188;entryDx=0;entryDy=0;entryPerimeter=0;exitX=0.998;exitY=0.187;exitDx=0;exitDy=0;exitPerimeter=0;" parent="1" source="qI_RE6lxmuwwauBpwvIy-71" target="qI_RE6lxmuwwauBpwvIy-71" edge="1">
          <mxGeometry width="50" height="50" relative="1" as="geometry">
            <mxPoint x="-1445" y="-1260" as="sourcePoint" />
            <mxPoint x="-1790" y="-1130" as="targetPoint" />
          </mxGeometry>
        </mxCell>
        <mxCell id="qI_RE6lxmuwwauBpwvIy-73" value="" style="endArrow=none;html=1;rounded=0;fontSize=12;startSize=8;endSize=8;curved=1;exitX=0.5;exitY=1;exitDx=0;exitDy=0;" parent="1" source="qI_RE6lxmuwwauBpwvIy-71" edge="1">
          <mxGeometry width="50" height="50" relative="1" as="geometry">
            <mxPoint x="-1840" y="-1080" as="sourcePoint" />
            <mxPoint x="-1605" y="-1250" as="targetPoint" />
          </mxGeometry>
        </mxCell>
        <mxCell id="qI_RE6lxmuwwauBpwvIy-74" value="&lt;div style=&quot;&quot;&gt;&lt;span style=&quot;font-size: 11px; text-wrap: nowrap;&quot;&gt;Unidad Especial&lt;/span&gt;&lt;/div&gt;&lt;div style=&quot;&quot;&gt;&lt;span style=&quot;font-size: 11px; text-wrap: nowrap;&quot;&gt;Bonificaciones&lt;/span&gt;&lt;/div&gt;&lt;div style=&quot;&quot;&gt;&lt;span style=&quot;font-size: 11px; text-wrap: nowrap;&quot;&gt;Recursos iniciales&lt;/span&gt;&lt;/div&gt;" style="text;html=1;align=left;verticalAlign=middle;whiteSpace=wrap;rounded=0;fontSize=16;" parent="1" vertex="1">
          <mxGeometry x="-1730" y="-1210" width="30" height="60" as="geometry" />
        </mxCell>
        <mxCell id="qI_RE6lxmuwwauBpwvIy-75" value="&lt;span style=&quot;font-size: 12px;&quot;&gt;Romanos&lt;/span&gt;" style="text;html=1;align=center;verticalAlign=middle;whiteSpace=wrap;rounded=0;fontSize=16;" parent="1" vertex="1">
          <mxGeometry x="-1635" y="-1300" width="60" height="30" as="geometry" />
        </mxCell>
        <mxCell id="qI_RE6lxmuwwauBpwvIy-77" value="Recursos&lt;div&gt;Barrack&lt;/div&gt;" style="text;html=1;align=center;verticalAlign=middle;whiteSpace=wrap;rounded=0;fontSize=16;" parent="1" vertex="1">
          <mxGeometry x="-1560" y="-1210" width="60" height="30" as="geometry" />
        </mxCell>
        <mxCell id="qI_RE6lxmuwwauBpwvIy-78" value="" style="whiteSpace=wrap;html=1;aspect=fixed;" parent="1" vertex="1">
          <mxGeometry x="-1360" y="-1320" width="310" height="310" as="geometry" />
        </mxCell>
        <mxCell id="qI_RE6lxmuwwauBpwvIy-79" value="" style="endArrow=none;html=1;rounded=0;fontSize=12;startSize=8;endSize=8;curved=1;entryX=0;entryY=0.188;entryDx=0;entryDy=0;entryPerimeter=0;exitX=0.998;exitY=0.187;exitDx=0;exitDy=0;exitPerimeter=0;" parent="1" source="qI_RE6lxmuwwauBpwvIy-78" target="qI_RE6lxmuwwauBpwvIy-78" edge="1">
          <mxGeometry width="50" height="50" relative="1" as="geometry">
            <mxPoint x="-1045" y="-1270" as="sourcePoint" />
            <mxPoint x="-1390" y="-1140" as="targetPoint" />
          </mxGeometry>
        </mxCell>
        <mxCell id="qI_RE6lxmuwwauBpwvIy-80" value="" style="endArrow=none;html=1;rounded=0;fontSize=12;startSize=8;endSize=8;curved=1;exitX=0.5;exitY=1;exitDx=0;exitDy=0;" parent="1" source="qI_RE6lxmuwwauBpwvIy-78" edge="1">
          <mxGeometry width="50" height="50" relative="1" as="geometry">
            <mxPoint x="-1440" y="-1090" as="sourcePoint" />
            <mxPoint x="-1205" y="-1260" as="targetPoint" />
          </mxGeometry>
        </mxCell>
        <mxCell id="qI_RE6lxmuwwauBpwvIy-81" value="&lt;div style=&quot;&quot;&gt;&lt;span style=&quot;font-size: 11px; text-wrap: nowrap;&quot;&gt;Unidad Especial&lt;/span&gt;&lt;/div&gt;&lt;div style=&quot;&quot;&gt;&lt;span style=&quot;font-size: 11px; text-wrap: nowrap;&quot;&gt;Bonificaciones&lt;/span&gt;&lt;/div&gt;&lt;div style=&quot;&quot;&gt;&lt;span style=&quot;font-size: 11px; text-wrap: nowrap;&quot;&gt;Recursos iniciales&lt;/span&gt;&lt;/div&gt;" style="text;html=1;align=left;verticalAlign=middle;whiteSpace=wrap;rounded=0;fontSize=16;" parent="1" vertex="1">
          <mxGeometry x="-1330" y="-1220" width="30" height="60" as="geometry" />
        </mxCell>
        <mxCell id="qI_RE6lxmuwwauBpwvIy-82" value="&lt;span style=&quot;font-size: 12px;&quot;&gt;Vikingos&lt;/span&gt;" style="text;html=1;align=center;verticalAlign=middle;whiteSpace=wrap;rounded=0;fontSize=16;" parent="1" vertex="1">
          <mxGeometry x="-1235" y="-1310" width="60" height="30" as="geometry" />
        </mxCell>
        <mxCell id="qI_RE6lxmuwwauBpwvIy-83" value="Recursos&lt;div&gt;Barrack&lt;/div&gt;" style="text;html=1;align=center;verticalAlign=middle;whiteSpace=wrap;rounded=0;fontSize=16;" parent="1" vertex="1">
          <mxGeometry x="-1160" y="-1220" width="60" height="30" as="geometry" />
        </mxCell>
        <mxCell id="qI_RE6lxmuwwauBpwvIy-84" value="" style="whiteSpace=wrap;html=1;aspect=fixed;" parent="1" vertex="1">
          <mxGeometry x="-970" y="-1335" width="310" height="310" as="geometry" />
        </mxCell>
        <mxCell id="qI_RE6lxmuwwauBpwvIy-85" value="" style="endArrow=none;html=1;rounded=0;fontSize=12;startSize=8;endSize=8;curved=1;entryX=0;entryY=0.188;entryDx=0;entryDy=0;entryPerimeter=0;exitX=0.998;exitY=0.187;exitDx=0;exitDy=0;exitPerimeter=0;" parent="1" source="qI_RE6lxmuwwauBpwvIy-84" target="qI_RE6lxmuwwauBpwvIy-84" edge="1">
          <mxGeometry width="50" height="50" relative="1" as="geometry">
            <mxPoint x="-655" y="-1285" as="sourcePoint" />
            <mxPoint x="-1000" y="-1155" as="targetPoint" />
          </mxGeometry>
        </mxCell>
        <mxCell id="qI_RE6lxmuwwauBpwvIy-86" value="" style="endArrow=none;html=1;rounded=0;fontSize=12;startSize=8;endSize=8;curved=1;exitX=0.5;exitY=1;exitDx=0;exitDy=0;" parent="1" source="qI_RE6lxmuwwauBpwvIy-84" edge="1">
          <mxGeometry width="50" height="50" relative="1" as="geometry">
            <mxPoint x="-1050" y="-1105" as="sourcePoint" />
            <mxPoint x="-815" y="-1275" as="targetPoint" />
          </mxGeometry>
        </mxCell>
        <mxCell id="qI_RE6lxmuwwauBpwvIy-87" value="&lt;div style=&quot;&quot;&gt;&lt;span style=&quot;font-size: 11px; text-wrap: nowrap;&quot;&gt;Unidad Especial&lt;/span&gt;&lt;/div&gt;&lt;div style=&quot;&quot;&gt;&lt;span style=&quot;font-size: 11px; text-wrap: nowrap;&quot;&gt;Bonificaciones&lt;/span&gt;&lt;/div&gt;&lt;div style=&quot;&quot;&gt;&lt;span style=&quot;font-size: 11px; text-wrap: nowrap;&quot;&gt;Recursos iniciales&lt;/span&gt;&lt;/div&gt;" style="text;html=1;align=left;verticalAlign=middle;whiteSpace=wrap;rounded=0;fontSize=16;" parent="1" vertex="1">
          <mxGeometry x="-940" y="-1235" width="30" height="60" as="geometry" />
        </mxCell>
        <mxCell id="qI_RE6lxmuwwauBpwvIy-88" value="&lt;span style=&quot;font-size: 12px;&quot;&gt;Cordobeses&lt;/span&gt;" style="text;html=1;align=center;verticalAlign=middle;whiteSpace=wrap;rounded=0;fontSize=16;" parent="1" vertex="1">
          <mxGeometry x="-845" y="-1325" width="60" height="30" as="geometry" />
        </mxCell>
        <mxCell id="qI_RE6lxmuwwauBpwvIy-89" value="Recursos&lt;div&gt;Barrack&lt;/div&gt;" style="text;html=1;align=center;verticalAlign=middle;whiteSpace=wrap;rounded=0;fontSize=16;" parent="1" vertex="1">
          <mxGeometry x="-770" y="-1235" width="60" height="30" as="geometry" />
        </mxCell>
        <mxCell id="qI_RE6lxmuwwauBpwvIy-90" value="" style="whiteSpace=wrap;html=1;aspect=fixed;" parent="1" vertex="1">
          <mxGeometry x="-1760" y="-960" width="310" height="310" as="geometry" />
        </mxCell>
        <mxCell id="qI_RE6lxmuwwauBpwvIy-91" value="" style="endArrow=none;html=1;rounded=0;fontSize=12;startSize=8;endSize=8;curved=1;entryX=0;entryY=0.188;entryDx=0;entryDy=0;entryPerimeter=0;exitX=0.998;exitY=0.187;exitDx=0;exitDy=0;exitPerimeter=0;" parent="1" source="qI_RE6lxmuwwauBpwvIy-90" target="qI_RE6lxmuwwauBpwvIy-90" edge="1">
          <mxGeometry width="50" height="50" relative="1" as="geometry">
            <mxPoint x="-1445" y="-910" as="sourcePoint" />
            <mxPoint x="-1790" y="-780" as="targetPoint" />
          </mxGeometry>
        </mxCell>
        <mxCell id="qI_RE6lxmuwwauBpwvIy-92" value="" style="endArrow=none;html=1;rounded=0;fontSize=12;startSize=8;endSize=8;curved=1;exitX=0.5;exitY=1;exitDx=0;exitDy=0;" parent="1" source="qI_RE6lxmuwwauBpwvIy-90" edge="1">
          <mxGeometry width="50" height="50" relative="1" as="geometry">
            <mxPoint x="-1840" y="-730" as="sourcePoint" />
            <mxPoint x="-1605" y="-900" as="targetPoint" />
          </mxGeometry>
        </mxCell>
        <mxCell id="qI_RE6lxmuwwauBpwvIy-93" value="&lt;div style=&quot;&quot;&gt;&lt;span style=&quot;font-size: 11px; text-wrap: nowrap;&quot;&gt;&lt;sup&gt;Unidades disponibles a entrenar&lt;/sup&gt;&lt;/span&gt;&lt;/div&gt;" style="text;html=1;align=left;verticalAlign=middle;whiteSpace=wrap;rounded=0;fontSize=16;" parent="1" vertex="1">
          <mxGeometry x="-1750" y="-877" width="60" height="90" as="geometry" />
        </mxCell>
        <mxCell id="qI_RE6lxmuwwauBpwvIy-94" value="&lt;span style=&quot;font-size: 12px;&quot;&gt;Barrack&lt;/span&gt;" style="text;html=1;align=center;verticalAlign=middle;whiteSpace=wrap;rounded=0;fontSize=16;" parent="1" vertex="1">
          <mxGeometry x="-1635" y="-950" width="60" height="30" as="geometry" />
        </mxCell>
        <mxCell id="qI_RE6lxmuwwauBpwvIy-95" value="Infantry&lt;div&gt;Cavalry&lt;/div&gt;&lt;div&gt;Archers&lt;/div&gt;&lt;div&gt;Romanos&lt;/div&gt;&lt;div&gt;Vikingos&lt;/div&gt;&lt;div&gt;Cordobeses&lt;/div&gt;" style="text;html=1;align=center;verticalAlign=middle;whiteSpace=wrap;rounded=0;fontSize=16;" parent="1" vertex="1">
          <mxGeometry x="-1560" y="-817" width="60" height="30" as="geometry" />
        </mxCell>
        <mxCell id="qI_RE6lxmuwwauBpwvIy-97" value="" style="whiteSpace=wrap;html=1;aspect=fixed;" parent="1" vertex="1">
          <mxGeometry x="-560" y="-1335" width="310" height="310" as="geometry" />
        </mxCell>
        <mxCell id="qI_RE6lxmuwwauBpwvIy-98" value="" style="endArrow=none;html=1;rounded=0;fontSize=12;startSize=8;endSize=8;curved=1;entryX=0;entryY=0.188;entryDx=0;entryDy=0;entryPerimeter=0;exitX=0.998;exitY=0.187;exitDx=0;exitDy=0;exitPerimeter=0;" parent="1" source="qI_RE6lxmuwwauBpwvIy-97" target="qI_RE6lxmuwwauBpwvIy-97" edge="1">
          <mxGeometry width="50" height="50" relative="1" as="geometry">
            <mxPoint x="-245" y="-1285" as="sourcePoint" />
            <mxPoint x="-590" y="-1155" as="targetPoint" />
          </mxGeometry>
        </mxCell>
        <mxCell id="qI_RE6lxmuwwauBpwvIy-99" value="" style="endArrow=none;html=1;rounded=0;fontSize=12;startSize=8;endSize=8;curved=1;exitX=0.5;exitY=1;exitDx=0;exitDy=0;" parent="1" source="qI_RE6lxmuwwauBpwvIy-97" edge="1">
          <mxGeometry width="50" height="50" relative="1" as="geometry">
            <mxPoint x="-640" y="-1105" as="sourcePoint" />
            <mxPoint x="-405" y="-1275" as="targetPoint" />
          </mxGeometry>
        </mxCell>
        <mxCell id="qI_RE6lxmuwwauBpwvIy-100" value="&lt;div style=&quot;&quot;&gt;&lt;br&gt;&lt;/div&gt;" style="text;html=1;align=left;verticalAlign=middle;whiteSpace=wrap;rounded=0;fontSize=16;" parent="1" vertex="1">
          <mxGeometry x="-530" y="-1235" width="30" height="60" as="geometry" />
        </mxCell>
        <mxCell id="qI_RE6lxmuwwauBpwvIy-101" value="&lt;span style=&quot;font-size: 12px;&quot;&gt;House&lt;/span&gt;" style="text;html=1;align=center;verticalAlign=middle;whiteSpace=wrap;rounded=0;fontSize=16;" parent="1" vertex="1">
          <mxGeometry x="-435" y="-1325" width="60" height="30" as="geometry" />
        </mxCell>
        <mxCell id="qI_RE6lxmuwwauBpwvIy-102" value="Recursos&lt;div&gt;Barrack&lt;/div&gt;" style="text;html=1;align=center;verticalAlign=middle;whiteSpace=wrap;rounded=0;fontSize=16;" parent="1" vertex="1">
          <mxGeometry x="-360" y="-1235" width="60" height="30" as="geometry" />
        </mxCell>
        <mxCell id="qI_RE6lxmuwwauBpwvIy-107" value="IConstruction" style="swimlane;fontStyle=1;align=center;verticalAlign=top;childLayout=stackLayout;horizontal=1;startSize=26;horizontalStack=0;resizeParent=1;resizeParentMax=0;resizeLast=0;collapsible=1;marginBottom=0;whiteSpace=wrap;html=1;" parent="1" vertex="1">
          <mxGeometry x="1000" y="-1720" width="190" height="98" as="geometry" />
        </mxCell>
        <mxCell id="qI_RE6lxmuwwauBpwvIy-108" value="+ConstructionTime : int&lt;div&gt;+Type : String&lt;/div&gt;&lt;div&gt;+Cost : Resources&lt;/div&gt;&lt;div&gt;+Position: list&amp;lt;Int&amp;gt;&lt;/div&gt;" style="text;strokeColor=none;fillColor=none;align=left;verticalAlign=top;spacingLeft=4;spacingRight=4;overflow=hidden;rotatable=0;points=[[0,0.5],[1,0.5]];portConstraint=eastwest;whiteSpace=wrap;html=1;" parent="qI_RE6lxmuwwauBpwvIy-107" vertex="1">
          <mxGeometry y="26" width="190" height="64" as="geometry" />
        </mxCell>
        <mxCell id="qI_RE6lxmuwwauBpwvIy-109" value="" style="line;strokeWidth=1;fillColor=none;align=left;verticalAlign=middle;spacingTop=-1;spacingLeft=3;spacingRight=3;rotatable=0;labelPosition=right;points=[];portConstraint=eastwest;strokeColor=inherit;" parent="qI_RE6lxmuwwauBpwvIy-107" vertex="1">
          <mxGeometry y="90" width="190" height="8" as="geometry" />
        </mxCell>
        <mxCell id="qI_RE6lxmuwwauBpwvIy-111" value="" style="endArrow=classic;html=1;rounded=0;fontSize=12;startSize=8;endSize=8;curved=1;" parent="1" edge="1">
          <mxGeometry width="50" height="50" relative="1" as="geometry">
            <mxPoint x="1050" y="-870" as="sourcePoint" />
            <mxPoint x="1050" y="-1002" as="targetPoint" />
          </mxGeometry>
        </mxCell>
        <mxCell id="qI_RE6lxmuwwauBpwvIy-117" value="" style="whiteSpace=wrap;html=1;aspect=fixed;" parent="1" vertex="1">
          <mxGeometry x="-1355" y="-960" width="310" height="310" as="geometry" />
        </mxCell>
        <mxCell id="qI_RE6lxmuwwauBpwvIy-118" value="" style="endArrow=none;html=1;rounded=0;fontSize=12;startSize=8;endSize=8;curved=1;entryX=0;entryY=0.188;entryDx=0;entryDy=0;entryPerimeter=0;exitX=0.998;exitY=0.187;exitDx=0;exitDy=0;exitPerimeter=0;" parent="1" source="qI_RE6lxmuwwauBpwvIy-117" target="qI_RE6lxmuwwauBpwvIy-117" edge="1">
          <mxGeometry width="50" height="50" relative="1" as="geometry">
            <mxPoint x="-1040" y="-910" as="sourcePoint" />
            <mxPoint x="-1385" y="-780" as="targetPoint" />
          </mxGeometry>
        </mxCell>
        <mxCell id="qI_RE6lxmuwwauBpwvIy-119" value="" style="endArrow=none;html=1;rounded=0;fontSize=12;startSize=8;endSize=8;curved=1;exitX=0.5;exitY=1;exitDx=0;exitDy=0;" parent="1" source="qI_RE6lxmuwwauBpwvIy-117" edge="1">
          <mxGeometry width="50" height="50" relative="1" as="geometry">
            <mxPoint x="-1435" y="-730" as="sourcePoint" />
            <mxPoint x="-1200" y="-900" as="targetPoint" />
          </mxGeometry>
        </mxCell>
        <mxCell id="qI_RE6lxmuwwauBpwvIy-120" value="&lt;div style=&quot;&quot;&gt;&lt;br&gt;&lt;/div&gt;" style="text;html=1;align=left;verticalAlign=middle;whiteSpace=wrap;rounded=0;fontSize=16;" parent="1" vertex="1">
          <mxGeometry x="-1345" y="-877" width="60" height="90" as="geometry" />
        </mxCell>
        <mxCell id="qI_RE6lxmuwwauBpwvIy-121" value="&lt;span style=&quot;font-size: 12px;&quot;&gt;Archer&lt;/span&gt;" style="text;html=1;align=center;verticalAlign=middle;whiteSpace=wrap;rounded=0;fontSize=16;" parent="1" vertex="1">
          <mxGeometry x="-1230" y="-950" width="60" height="30" as="geometry" />
        </mxCell>
        <mxCell id="qI_RE6lxmuwwauBpwvIy-123" value="Actions" style="text;html=1;align=center;verticalAlign=middle;whiteSpace=wrap;rounded=0;fontSize=16;" parent="1" vertex="1">
          <mxGeometry x="-1160" y="-820" width="60" height="30" as="geometry" />
        </mxCell>
        <mxCell id="qI_RE6lxmuwwauBpwvIy-124" value="" style="whiteSpace=wrap;html=1;aspect=fixed;" parent="1" vertex="1">
          <mxGeometry x="-960" y="-960" width="310" height="310" as="geometry" />
        </mxCell>
        <mxCell id="qI_RE6lxmuwwauBpwvIy-125" value="" style="endArrow=none;html=1;rounded=0;fontSize=12;startSize=8;endSize=8;curved=1;entryX=0;entryY=0.188;entryDx=0;entryDy=0;entryPerimeter=0;exitX=0.998;exitY=0.187;exitDx=0;exitDy=0;exitPerimeter=0;" parent="1" source="qI_RE6lxmuwwauBpwvIy-124" target="qI_RE6lxmuwwauBpwvIy-124" edge="1">
          <mxGeometry width="50" height="50" relative="1" as="geometry">
            <mxPoint x="-645" y="-910" as="sourcePoint" />
            <mxPoint x="-990" y="-780" as="targetPoint" />
          </mxGeometry>
        </mxCell>
        <mxCell id="qI_RE6lxmuwwauBpwvIy-126" value="" style="endArrow=none;html=1;rounded=0;fontSize=12;startSize=8;endSize=8;curved=1;exitX=0.5;exitY=1;exitDx=0;exitDy=0;" parent="1" source="qI_RE6lxmuwwauBpwvIy-124" edge="1">
          <mxGeometry width="50" height="50" relative="1" as="geometry">
            <mxPoint x="-1040" y="-730" as="sourcePoint" />
            <mxPoint x="-805" y="-900" as="targetPoint" />
          </mxGeometry>
        </mxCell>
        <mxCell id="qI_RE6lxmuwwauBpwvIy-127" value="&lt;div style=&quot;&quot;&gt;&lt;span style=&quot;font-size: 11px; text-wrap: nowrap;&quot;&gt;&lt;sup&gt;Unidades disponibles a entrenar&lt;/sup&gt;&lt;/span&gt;&lt;/div&gt;" style="text;html=1;align=left;verticalAlign=middle;whiteSpace=wrap;rounded=0;fontSize=16;" parent="1" vertex="1">
          <mxGeometry x="-950" y="-877" width="60" height="90" as="geometry" />
        </mxCell>
        <mxCell id="qI_RE6lxmuwwauBpwvIy-128" value="&lt;span style=&quot;font-size: 12px;&quot;&gt;Cavalry&lt;/span&gt;" style="text;html=1;align=center;verticalAlign=middle;whiteSpace=wrap;rounded=0;fontSize=16;" parent="1" vertex="1">
          <mxGeometry x="-835" y="-950" width="60" height="30" as="geometry" />
        </mxCell>
        <mxCell id="qI_RE6lxmuwwauBpwvIy-129" value="Actions&lt;div&gt;&lt;br&gt;&lt;/div&gt;" style="text;html=1;align=center;verticalAlign=middle;whiteSpace=wrap;rounded=0;fontSize=16;" parent="1" vertex="1">
          <mxGeometry x="-760" y="-817" width="60" height="30" as="geometry" />
        </mxCell>
        <mxCell id="qI_RE6lxmuwwauBpwvIy-139" value="" style="whiteSpace=wrap;html=1;aspect=fixed;" parent="1" vertex="1">
          <mxGeometry x="-2180" y="-940" width="310" height="310" as="geometry" />
        </mxCell>
        <mxCell id="qI_RE6lxmuwwauBpwvIy-140" value="" style="endArrow=none;html=1;rounded=0;fontSize=12;startSize=8;endSize=8;curved=1;entryX=0;entryY=0.188;entryDx=0;entryDy=0;entryPerimeter=0;exitX=0.998;exitY=0.187;exitDx=0;exitDy=0;exitPerimeter=0;" parent="1" source="qI_RE6lxmuwwauBpwvIy-139" target="qI_RE6lxmuwwauBpwvIy-139" edge="1">
          <mxGeometry width="50" height="50" relative="1" as="geometry">
            <mxPoint x="-1865" y="-890" as="sourcePoint" />
            <mxPoint x="-2210" y="-760" as="targetPoint" />
          </mxGeometry>
        </mxCell>
        <mxCell id="qI_RE6lxmuwwauBpwvIy-141" value="" style="endArrow=none;html=1;rounded=0;fontSize=12;startSize=8;endSize=8;curved=1;exitX=0.5;exitY=1;exitDx=0;exitDy=0;" parent="1" source="qI_RE6lxmuwwauBpwvIy-139" edge="1">
          <mxGeometry width="50" height="50" relative="1" as="geometry">
            <mxPoint x="-2260" y="-710" as="sourcePoint" />
            <mxPoint x="-2025" y="-880" as="targetPoint" />
          </mxGeometry>
        </mxCell>
        <mxCell id="qI_RE6lxmuwwauBpwvIy-142" value="&lt;div style=&quot;&quot;&gt;&lt;br&gt;&lt;/div&gt;" style="text;html=1;align=left;verticalAlign=middle;whiteSpace=wrap;rounded=0;fontSize=16;" parent="1" vertex="1">
          <mxGeometry x="-2170" y="-857" width="60" height="90" as="geometry" />
        </mxCell>
        <mxCell id="qI_RE6lxmuwwauBpwvIy-143" value="&lt;span style=&quot;font-size: 12px;&quot;&gt;Barrack&lt;/span&gt;" style="text;html=1;align=center;verticalAlign=middle;whiteSpace=wrap;rounded=0;fontSize=16;" parent="1" vertex="1">
          <mxGeometry x="-2055" y="-930" width="60" height="30" as="geometry" />
        </mxCell>
        <mxCell id="qI_RE6lxmuwwauBpwvIy-144" value="Actions" style="text;html=1;align=center;verticalAlign=middle;whiteSpace=wrap;rounded=0;fontSize=16;" parent="1" vertex="1">
          <mxGeometry x="-1980" y="-797" width="60" height="30" as="geometry" />
        </mxCell>
        <mxCell id="qI_RE6lxmuwwauBpwvIy-145" value="" style="whiteSpace=wrap;html=1;aspect=fixed;" parent="1" vertex="1">
          <mxGeometry x="-2200" y="-540" width="310" height="310" as="geometry" />
        </mxCell>
        <mxCell id="qI_RE6lxmuwwauBpwvIy-146" value="" style="endArrow=none;html=1;rounded=0;fontSize=12;startSize=8;endSize=8;curved=1;entryX=0;entryY=0.188;entryDx=0;entryDy=0;entryPerimeter=0;exitX=0.998;exitY=0.187;exitDx=0;exitDy=0;exitPerimeter=0;" parent="1" source="qI_RE6lxmuwwauBpwvIy-145" target="qI_RE6lxmuwwauBpwvIy-145" edge="1">
          <mxGeometry width="50" height="50" relative="1" as="geometry">
            <mxPoint x="-1885" y="-490" as="sourcePoint" />
            <mxPoint x="-2230" y="-360" as="targetPoint" />
          </mxGeometry>
        </mxCell>
        <mxCell id="qI_RE6lxmuwwauBpwvIy-147" value="" style="endArrow=none;html=1;rounded=0;fontSize=12;startSize=8;endSize=8;curved=1;exitX=0.5;exitY=1;exitDx=0;exitDy=0;" parent="1" source="qI_RE6lxmuwwauBpwvIy-145" edge="1">
          <mxGeometry width="50" height="50" relative="1" as="geometry">
            <mxPoint x="-2280" y="-310" as="sourcePoint" />
            <mxPoint x="-2045" y="-480" as="targetPoint" />
          </mxGeometry>
        </mxCell>
        <mxCell id="qI_RE6lxmuwwauBpwvIy-148" value="&lt;div style=&quot;&quot;&gt;&lt;font size=&quot;1&quot;&gt;&lt;span style=&quot;text-wrap: nowrap;&quot;&gt;Conocer mapa&lt;/span&gt;&lt;/font&gt;&lt;/div&gt;&lt;div style=&quot;&quot;&gt;&lt;font size=&quot;1&quot;&gt;&lt;span style=&quot;text-wrap: nowrap;&quot;&gt;Conocer unidades&lt;/span&gt;&lt;/font&gt;&lt;/div&gt;&lt;div style=&quot;&quot;&gt;&lt;font size=&quot;1&quot;&gt;&lt;span style=&quot;text-wrap: nowrap;&quot;&gt;&lt;br&gt;&lt;/span&gt;&lt;/font&gt;&lt;/div&gt;" style="text;html=1;align=left;verticalAlign=middle;whiteSpace=wrap;rounded=0;fontSize=16;" parent="1" vertex="1">
          <mxGeometry x="-2150" y="-439" width="60" height="90" as="geometry" />
        </mxCell>
        <mxCell id="qI_RE6lxmuwwauBpwvIy-149" value="&lt;span style=&quot;font-size: 12px;&quot;&gt;Actions&lt;/span&gt;" style="text;html=1;align=center;verticalAlign=middle;whiteSpace=wrap;rounded=0;fontSize=16;" parent="1" vertex="1">
          <mxGeometry x="-2075" y="-530" width="60" height="30" as="geometry" />
        </mxCell>
        <mxCell id="qI_RE6lxmuwwauBpwvIy-152" value="Cavalry&lt;div&gt;Archer&lt;/div&gt;&lt;div&gt;Infantry&lt;/div&gt;&lt;div&gt;Villager&lt;/div&gt;&lt;div&gt;Map&lt;/div&gt;" style="text;html=1;align=center;verticalAlign=middle;whiteSpace=wrap;rounded=0;fontSize=16;" parent="1" vertex="1">
          <mxGeometry x="-2000" y="-409" width="60" height="30" as="geometry" />
        </mxCell>
        <mxCell id="qI_RE6lxmuwwauBpwvIy-153" value="" style="whiteSpace=wrap;html=1;aspect=fixed;" parent="1" vertex="1">
          <mxGeometry x="-1760" y="-540" width="310" height="310" as="geometry" />
        </mxCell>
        <mxCell id="qI_RE6lxmuwwauBpwvIy-154" value="" style="endArrow=none;html=1;rounded=0;fontSize=12;startSize=8;endSize=8;curved=1;entryX=0;entryY=0.188;entryDx=0;entryDy=0;entryPerimeter=0;exitX=0.998;exitY=0.187;exitDx=0;exitDy=0;exitPerimeter=0;" parent="1" source="qI_RE6lxmuwwauBpwvIy-153" target="qI_RE6lxmuwwauBpwvIy-153" edge="1">
          <mxGeometry width="50" height="50" relative="1" as="geometry">
            <mxPoint x="-1445" y="-490" as="sourcePoint" />
            <mxPoint x="-1790" y="-360" as="targetPoint" />
          </mxGeometry>
        </mxCell>
        <mxCell id="qI_RE6lxmuwwauBpwvIy-155" value="" style="endArrow=none;html=1;rounded=0;fontSize=12;startSize=8;endSize=8;curved=1;exitX=0.5;exitY=1;exitDx=0;exitDy=0;" parent="1" source="qI_RE6lxmuwwauBpwvIy-153" edge="1">
          <mxGeometry width="50" height="50" relative="1" as="geometry">
            <mxPoint x="-1840" y="-310" as="sourcePoint" />
            <mxPoint x="-1605" y="-480" as="targetPoint" />
          </mxGeometry>
        </mxCell>
        <mxCell id="qI_RE6lxmuwwauBpwvIy-156" value="&lt;div style=&quot;&quot;&gt;&lt;br&gt;&lt;/div&gt;" style="text;html=1;align=left;verticalAlign=middle;whiteSpace=wrap;rounded=0;fontSize=16;" parent="1" vertex="1">
          <mxGeometry x="-1750" y="-457" width="60" height="90" as="geometry" />
        </mxCell>
        <mxCell id="qI_RE6lxmuwwauBpwvIy-157" value="&lt;span style=&quot;font-size: 12px;&quot;&gt;House&lt;/span&gt;" style="text;html=1;align=center;verticalAlign=middle;whiteSpace=wrap;rounded=0;fontSize=16;" parent="1" vertex="1">
          <mxGeometry x="-1635" y="-530" width="60" height="30" as="geometry" />
        </mxCell>
        <mxCell id="qI_RE6lxmuwwauBpwvIy-159" value="" style="whiteSpace=wrap;html=1;aspect=fixed;" parent="1" vertex="1">
          <mxGeometry x="-1345" y="-549" width="310" height="310" as="geometry" />
        </mxCell>
        <mxCell id="qI_RE6lxmuwwauBpwvIy-160" value="" style="endArrow=none;html=1;rounded=0;fontSize=12;startSize=8;endSize=8;curved=1;entryX=0;entryY=0.188;entryDx=0;entryDy=0;entryPerimeter=0;exitX=0.998;exitY=0.187;exitDx=0;exitDy=0;exitPerimeter=0;" parent="1" source="qI_RE6lxmuwwauBpwvIy-159" target="qI_RE6lxmuwwauBpwvIy-159" edge="1">
          <mxGeometry width="50" height="50" relative="1" as="geometry">
            <mxPoint x="-1030" y="-499" as="sourcePoint" />
            <mxPoint x="-1375" y="-369" as="targetPoint" />
          </mxGeometry>
        </mxCell>
        <mxCell id="qI_RE6lxmuwwauBpwvIy-161" value="" style="endArrow=none;html=1;rounded=0;fontSize=12;startSize=8;endSize=8;curved=1;exitX=0.5;exitY=1;exitDx=0;exitDy=0;" parent="1" source="qI_RE6lxmuwwauBpwvIy-159" edge="1">
          <mxGeometry width="50" height="50" relative="1" as="geometry">
            <mxPoint x="-1425" y="-319" as="sourcePoint" />
            <mxPoint x="-1190" y="-489" as="targetPoint" />
          </mxGeometry>
        </mxCell>
        <mxCell id="qI_RE6lxmuwwauBpwvIy-162" value="&lt;div style=&quot;&quot;&gt;&lt;font size=&quot;1&quot;&gt;&lt;span style=&quot;text-wrap: nowrap;&quot;&gt;Unidades y recursos usados&lt;/span&gt;&lt;/font&gt;&lt;/div&gt;" style="text;html=1;align=left;verticalAlign=middle;whiteSpace=wrap;rounded=0;fontSize=16;" parent="1" vertex="1">
          <mxGeometry x="-1335" y="-466" width="60" height="90" as="geometry" />
        </mxCell>
        <mxCell id="qI_RE6lxmuwwauBpwvIy-163" value="&lt;span style=&quot;font-size: 12px;&quot;&gt;Resume&lt;/span&gt;" style="text;html=1;align=center;verticalAlign=middle;whiteSpace=wrap;rounded=0;fontSize=16;" parent="1" vertex="1">
          <mxGeometry x="-1220" y="-539" width="60" height="30" as="geometry" />
        </mxCell>
        <mxCell id="qI_RE6lxmuwwauBpwvIy-164" value="Infantry&lt;div&gt;Cavalry&lt;/div&gt;&lt;div&gt;Archers&lt;/div&gt;&lt;div&gt;Resources&lt;/div&gt;&lt;div&gt;CentroCivico&lt;/div&gt;" style="text;html=1;align=center;verticalAlign=middle;whiteSpace=wrap;rounded=0;fontSize=16;" parent="1" vertex="1">
          <mxGeometry x="-1145" y="-406" width="60" height="30" as="geometry" />
        </mxCell>
        <mxCell id="qI_RE6lxmuwwauBpwvIy-165" value="" style="whiteSpace=wrap;html=1;aspect=fixed;" parent="1" vertex="1">
          <mxGeometry x="-920" y="-546" width="310" height="310" as="geometry" />
        </mxCell>
        <mxCell id="qI_RE6lxmuwwauBpwvIy-166" value="" style="endArrow=none;html=1;rounded=0;fontSize=12;startSize=8;endSize=8;curved=1;entryX=0;entryY=0.188;entryDx=0;entryDy=0;entryPerimeter=0;exitX=0.998;exitY=0.187;exitDx=0;exitDy=0;exitPerimeter=0;" parent="1" source="qI_RE6lxmuwwauBpwvIy-165" target="qI_RE6lxmuwwauBpwvIy-165" edge="1">
          <mxGeometry width="50" height="50" relative="1" as="geometry">
            <mxPoint x="-605" y="-496" as="sourcePoint" />
            <mxPoint x="-950" y="-366" as="targetPoint" />
          </mxGeometry>
        </mxCell>
        <mxCell id="qI_RE6lxmuwwauBpwvIy-167" value="" style="endArrow=none;html=1;rounded=0;fontSize=12;startSize=8;endSize=8;curved=1;exitX=0.5;exitY=1;exitDx=0;exitDy=0;" parent="1" source="qI_RE6lxmuwwauBpwvIy-165" edge="1">
          <mxGeometry width="50" height="50" relative="1" as="geometry">
            <mxPoint x="-1000" y="-316" as="sourcePoint" />
            <mxPoint x="-765" y="-486" as="targetPoint" />
          </mxGeometry>
        </mxCell>
        <mxCell id="qI_RE6lxmuwwauBpwvIy-168" value="&lt;div style=&quot;&quot;&gt;&lt;font size=&quot;1&quot;&gt;&lt;span style=&quot;text-wrap: nowrap;&quot;&gt;Dimensiones del mapa&lt;/span&gt;&lt;/font&gt;&lt;/div&gt;&lt;div style=&quot;&quot;&gt;&lt;font size=&quot;1&quot;&gt;&lt;span style=&quot;text-wrap: nowrap;&quot;&gt;Posiciones de construcciones&lt;/span&gt;&lt;/font&gt;&lt;/div&gt;&lt;div style=&quot;&quot;&gt;&lt;font size=&quot;1&quot;&gt;&lt;span style=&quot;text-wrap: nowrap;&quot;&gt;Posiciones de unidades&lt;/span&gt;&lt;/font&gt;&lt;/div&gt;&lt;div style=&quot;&quot;&gt;&lt;font size=&quot;1&quot;&gt;&lt;span style=&quot;text-wrap: nowrap;&quot;&gt;Posiciones de aldeanos&lt;/span&gt;&lt;/font&gt;&lt;/div&gt;&lt;div style=&quot;&quot;&gt;&lt;font size=&quot;1&quot;&gt;&lt;span style=&quot;text-wrap: nowrap;&quot;&gt;&lt;br&gt;&lt;/span&gt;&lt;/font&gt;&lt;/div&gt;" style="text;html=1;align=left;verticalAlign=middle;whiteSpace=wrap;rounded=0;fontSize=16;" parent="1" vertex="1">
          <mxGeometry x="-910" y="-463" width="60" height="90" as="geometry" />
        </mxCell>
        <mxCell id="qI_RE6lxmuwwauBpwvIy-169" value="&lt;span style=&quot;font-size: 12px;&quot;&gt;Map&lt;/span&gt;" style="text;html=1;align=center;verticalAlign=middle;whiteSpace=wrap;rounded=0;fontSize=16;" parent="1" vertex="1">
          <mxGeometry x="-795" y="-536" width="60" height="30" as="geometry" />
        </mxCell>
        <mxCell id="qI_RE6lxmuwwauBpwvIy-170" value="Infantry&lt;div&gt;Cavalry&lt;/div&gt;&lt;div&gt;Archers&lt;/div&gt;&lt;div&gt;Actions&lt;/div&gt;&lt;div&gt;Villager&lt;/div&gt;&lt;div&gt;Construcciones&lt;/div&gt;" style="text;html=1;align=center;verticalAlign=middle;whiteSpace=wrap;rounded=0;fontSize=16;" parent="1" vertex="1">
          <mxGeometry x="-720" y="-403" width="60" height="30" as="geometry" />
        </mxCell>
        <mxCell id="qI_RE6lxmuwwauBpwvIy-171" value="IUnit" style="swimlane;fontStyle=1;align=center;verticalAlign=top;childLayout=stackLayout;horizontal=1;startSize=26;horizontalStack=0;resizeParent=1;resizeParentMax=0;resizeLast=0;collapsible=1;marginBottom=0;whiteSpace=wrap;html=1;" parent="1" vertex="1">
          <mxGeometry x="960" y="-1100" width="190" height="98" as="geometry" />
        </mxCell>
        <mxCell id="qI_RE6lxmuwwauBpwvIy-172" value="+TimeTraining : int&lt;div&gt;+Type : String&lt;/div&gt;&lt;div&gt;+Cost : Resources&lt;/div&gt;&lt;div&gt;+Advantage: IUnit&lt;/div&gt;" style="text;strokeColor=none;fillColor=none;align=left;verticalAlign=top;spacingLeft=4;spacingRight=4;overflow=hidden;rotatable=0;points=[[0,0.5],[1,0.5]];portConstraint=eastwest;whiteSpace=wrap;html=1;" parent="qI_RE6lxmuwwauBpwvIy-171" vertex="1">
          <mxGeometry y="26" width="190" height="64" as="geometry" />
        </mxCell>
        <mxCell id="qI_RE6lxmuwwauBpwvIy-173" value="" style="line;strokeWidth=1;fillColor=none;align=left;verticalAlign=middle;spacingTop=-1;spacingLeft=3;spacingRight=3;rotatable=0;labelPosition=right;points=[];portConstraint=eastwest;strokeColor=inherit;" parent="qI_RE6lxmuwwauBpwvIy-171" vertex="1">
          <mxGeometry y="90" width="190" height="8" as="geometry" />
        </mxCell>
        <mxCell id="qI_RE6lxmuwwauBpwvIy-177" value="Archer&lt;span style=&quot;color: rgba(0, 0, 0, 0); font-family: monospace; font-size: 0px; font-weight: 400; text-align: start; text-wrap: nowrap;&quot;&gt;%3CmxGraphModel%3E%3Croot%3E%3CmxCell%20id%3D%220%22%2F%3E%3CmxCell%20id%3D%221%22%20parent%3D%220%22%2F%3E%3CmxCell%20id%3D%222%22%20value%3D%22IConstruction%22%20style%3D%22swimlane%3BfontStyle%3D1%3Balign%3Dcenter%3BverticalAlign%3Dtop%3BchildLayout%3DstackLayout%3Bhorizontal%3D1%3BstartSize%3D26%3BhorizontalStack%3D0%3BresizeParent%3D1%3BresizeParentMax%3D0%3BresizeLast%3D0%3Bcollapsible%3D1%3BmarginBottom%3D0%3BwhiteSpace%3Dwrap%3Bhtml%3D1%3B%22%20vertex%3D%221%22%20parent%3D%221%22%3E%3CmxGeometry%20x%3D%222120%22%20y%3D%22-1724%22%20width%3D%22190%22%20height%3D%2298%22%20as%3D%22geometry%22%2F%3E%3C%2FmxCell%3E%3CmxCell%20id%3D%223%22%20value%3D%22%2BTime%20%3A%20int%26lt%3Bdiv%26gt%3B%2BType%20%3A%20String%26lt%3B%2Fdiv%26gt%3B%26lt%3Bdiv%26gt%3B%2BCost%20%3A%20Resources%26lt%3B%2Fdiv%26gt%3B%26lt%3Bdiv%26gt%3B%26lt%3Bbr%26gt%3B%26lt%3B%2Fdiv%26gt%3B%22%20style%3D%22text%3BstrokeColor%3Dnone%3BfillColor%3Dnone%3Balign%3Dleft%3BverticalAlign%3Dtop%3BspacingLeft%3D4%3BspacingRight%3D4%3Boverflow%3Dhidden%3Brotatable%3D0%3Bpoints%3D%5B%5B0%2C0.5%5D%2C%5B1%2C0.5%5D%5D%3BportConstraint%3Deastwest%3BwhiteSpace%3Dwrap%3Bhtml%3D1%3B%22%20vertex%3D%221%22%20parent%3D%222%22%3E%3CmxGeometry%20y%3D%2226%22%20width%3D%22190%22%20height%3D%2264%22%20as%3D%22geometry%22%2F%3E%3C%2FmxCell%3E%3CmxCell%20id%3D%224%22%20value%3D%22%22%20style%3D%22line%3BstrokeWidth%3D1%3BfillColor%3Dnone%3Balign%3Dleft%3BverticalAlign%3Dmiddle%3BspacingTop%3D-1%3BspacingLeft%3D3%3BspacingRight%3D3%3Brotatable%3D0%3BlabelPosition%3Dright%3Bpoints%3D%5B%5D%3BportConstraint%3Deastwest%3BstrokeColor%3Dinherit%3B%22%20vertex%3D%221%22%20parent%3D%222%22%3E%3CmxGeometry%20y%3D%2290%22%20width%3D%22190%22%20height%3D%228%22%20as%3D%22geometry%22%2F%3E%3C%2FmxCell%3E%3C%2Froot%3E%3C%2FmxGraphModel%3E&lt;/span&gt;" style="swimlane;fontStyle=1;align=center;verticalAlign=top;childLayout=stackLayout;horizontal=1;startSize=26;horizontalStack=0;resizeParent=1;resizeParentMax=0;resizeLast=0;collapsible=1;marginBottom=0;whiteSpace=wrap;html=1;" parent="1" vertex="1">
          <mxGeometry x="950" y="-828" width="190" height="98" as="geometry" />
        </mxCell>
        <mxCell id="qI_RE6lxmuwwauBpwvIy-178" value="&lt;div&gt;+Speed:Int&lt;/div&gt;&lt;div&gt;+Attack:Int&lt;/div&gt;&lt;div&gt;+Defense:Int&lt;/div&gt;&lt;div&gt;&lt;br&gt;&lt;/div&gt;" style="text;strokeColor=none;fillColor=none;align=left;verticalAlign=top;spacingLeft=4;spacingRight=4;overflow=hidden;rotatable=0;points=[[0,0.5],[1,0.5]];portConstraint=eastwest;whiteSpace=wrap;html=1;" parent="qI_RE6lxmuwwauBpwvIy-177" vertex="1">
          <mxGeometry y="26" width="190" height="64" as="geometry" />
        </mxCell>
        <mxCell id="qI_RE6lxmuwwauBpwvIy-179" value="" style="line;strokeWidth=1;fillColor=none;align=left;verticalAlign=middle;spacingTop=-1;spacingLeft=3;spacingRight=3;rotatable=0;labelPosition=right;points=[];portConstraint=eastwest;strokeColor=inherit;" parent="qI_RE6lxmuwwauBpwvIy-177" vertex="1">
          <mxGeometry y="90" width="190" height="8" as="geometry" />
        </mxCell>
        <mxCell id="qI_RE6lxmuwwauBpwvIy-180" value="Cavalry" style="swimlane;fontStyle=1;align=center;verticalAlign=top;childLayout=stackLayout;horizontal=1;startSize=26;horizontalStack=0;resizeParent=1;resizeParentMax=0;resizeLast=0;collapsible=1;marginBottom=0;whiteSpace=wrap;html=1;" parent="1" vertex="1">
          <mxGeometry x="650" y="-828" width="190" height="98" as="geometry" />
        </mxCell>
        <mxCell id="qI_RE6lxmuwwauBpwvIy-181" value="&lt;div&gt;+Speed:Int&lt;/div&gt;&lt;div&gt;+Attack:Int&lt;/div&gt;&lt;div&gt;+Defense:Int&lt;/div&gt;&lt;div&gt;+&lt;/div&gt;" style="text;strokeColor=none;fillColor=none;align=left;verticalAlign=top;spacingLeft=4;spacingRight=4;overflow=hidden;rotatable=0;points=[[0,0.5],[1,0.5]];portConstraint=eastwest;whiteSpace=wrap;html=1;" parent="qI_RE6lxmuwwauBpwvIy-180" vertex="1">
          <mxGeometry y="26" width="190" height="64" as="geometry" />
        </mxCell>
        <mxCell id="qI_RE6lxmuwwauBpwvIy-182" value="" style="line;strokeWidth=1;fillColor=none;align=left;verticalAlign=middle;spacingTop=-1;spacingLeft=3;spacingRight=3;rotatable=0;labelPosition=right;points=[];portConstraint=eastwest;strokeColor=inherit;" parent="qI_RE6lxmuwwauBpwvIy-180" vertex="1">
          <mxGeometry y="90" width="190" height="8" as="geometry" />
        </mxCell>
        <mxCell id="qI_RE6lxmuwwauBpwvIy-183" value="Infantry" style="swimlane;fontStyle=1;align=center;verticalAlign=top;childLayout=stackLayout;horizontal=1;startSize=26;horizontalStack=0;resizeParent=1;resizeParentMax=0;resizeLast=0;collapsible=1;marginBottom=0;whiteSpace=wrap;html=1;" parent="1" vertex="1">
          <mxGeometry x="1220" y="-828" width="190" height="98" as="geometry" />
        </mxCell>
        <mxCell id="qI_RE6lxmuwwauBpwvIy-184" value="&lt;div&gt;+Speed:Int&lt;/div&gt;&lt;div&gt;+Attack:Int&lt;/div&gt;&lt;div&gt;+Defense:Int&lt;/div&gt;" style="text;strokeColor=none;fillColor=none;align=left;verticalAlign=top;spacingLeft=4;spacingRight=4;overflow=hidden;rotatable=0;points=[[0,0.5],[1,0.5]];portConstraint=eastwest;whiteSpace=wrap;html=1;" parent="qI_RE6lxmuwwauBpwvIy-183" vertex="1">
          <mxGeometry y="26" width="190" height="64" as="geometry" />
        </mxCell>
        <mxCell id="qI_RE6lxmuwwauBpwvIy-185" value="" style="line;strokeWidth=1;fillColor=none;align=left;verticalAlign=middle;spacingTop=-1;spacingLeft=3;spacingRight=3;rotatable=0;labelPosition=right;points=[];portConstraint=eastwest;strokeColor=inherit;" parent="qI_RE6lxmuwwauBpwvIy-183" vertex="1">
          <mxGeometry y="90" width="190" height="8" as="geometry" />
        </mxCell>
        <mxCell id="qI_RE6lxmuwwauBpwvIy-186" value="" style="endArrow=none;html=1;rounded=0;fontSize=12;startSize=8;endSize=8;curved=1;" parent="1" edge="1">
          <mxGeometry width="50" height="50" relative="1" as="geometry">
            <mxPoint x="510" y="-870" as="sourcePoint" />
            <mxPoint x="1050" y="-870" as="targetPoint" />
          </mxGeometry>
        </mxCell>
        <mxCell id="qI_RE6lxmuwwauBpwvIy-187" value="" style="endArrow=none;html=1;rounded=0;fontSize=12;startSize=8;endSize=8;curved=1;entryX=0.421;entryY=-0.02;entryDx=0;entryDy=0;entryPerimeter=0;" parent="1" target="qI_RE6lxmuwwauBpwvIy-180" edge="1">
          <mxGeometry width="50" height="50" relative="1" as="geometry">
            <mxPoint x="730" y="-870" as="sourcePoint" />
            <mxPoint x="1000" y="-910" as="targetPoint" />
          </mxGeometry>
        </mxCell>
        <mxCell id="qI_RE6lxmuwwauBpwvIy-188" value="" style="endArrow=none;html=1;rounded=0;fontSize=12;startSize=8;endSize=8;curved=1;exitX=0.524;exitY=0.015;exitDx=0;exitDy=0;exitPerimeter=0;" parent="1" source="qI_RE6lxmuwwauBpwvIy-177" edge="1">
          <mxGeometry width="50" height="50" relative="1" as="geometry">
            <mxPoint x="950" y="-860" as="sourcePoint" />
            <mxPoint x="1050" y="-870" as="targetPoint" />
          </mxGeometry>
        </mxCell>
        <mxCell id="qI_RE6lxmuwwauBpwvIy-189" value="" style="endArrow=none;html=1;rounded=0;fontSize=12;startSize=8;endSize=8;curved=1;" parent="1" edge="1">
          <mxGeometry width="50" height="50" relative="1" as="geometry">
            <mxPoint x="1050" y="-870" as="sourcePoint" />
            <mxPoint x="1810" y="-870" as="targetPoint" />
          </mxGeometry>
        </mxCell>
        <mxCell id="qI_RE6lxmuwwauBpwvIy-190" value="" style="endArrow=none;html=1;rounded=0;fontSize=12;startSize=8;endSize=8;curved=1;" parent="1" edge="1">
          <mxGeometry width="50" height="50" relative="1" as="geometry">
            <mxPoint x="1330" y="-830" as="sourcePoint" />
            <mxPoint x="1330" y="-870" as="targetPoint" />
          </mxGeometry>
        </mxCell>
        <mxCell id="qI_RE6lxmuwwauBpwvIy-194" value="Borracho" style="swimlane;fontStyle=1;align=center;verticalAlign=top;childLayout=stackLayout;horizontal=1;startSize=26;horizontalStack=0;resizeParent=1;resizeParentMax=0;resizeLast=0;collapsible=1;marginBottom=0;whiteSpace=wrap;html=1;" parent="1" vertex="1">
          <mxGeometry x="1460" y="-828" width="190" height="98" as="geometry" />
        </mxCell>
        <mxCell id="qI_RE6lxmuwwauBpwvIy-195" value="&lt;div&gt;+Speed:Int&lt;/div&gt;&lt;div&gt;+Attack:Int&lt;/div&gt;&lt;div&gt;+Defense:Int&lt;/div&gt;" style="text;strokeColor=none;fillColor=none;align=left;verticalAlign=top;spacingLeft=4;spacingRight=4;overflow=hidden;rotatable=0;points=[[0,0.5],[1,0.5]];portConstraint=eastwest;whiteSpace=wrap;html=1;" parent="qI_RE6lxmuwwauBpwvIy-194" vertex="1">
          <mxGeometry y="26" width="190" height="64" as="geometry" />
        </mxCell>
        <mxCell id="qI_RE6lxmuwwauBpwvIy-196" value="" style="line;strokeWidth=1;fillColor=none;align=left;verticalAlign=middle;spacingTop=-1;spacingLeft=3;spacingRight=3;rotatable=0;labelPosition=right;points=[];portConstraint=eastwest;strokeColor=inherit;" parent="qI_RE6lxmuwwauBpwvIy-194" vertex="1">
          <mxGeometry y="90" width="190" height="8" as="geometry" />
        </mxCell>
        <mxCell id="qI_RE6lxmuwwauBpwvIy-197" value="Thor" style="swimlane;fontStyle=1;align=center;verticalAlign=top;childLayout=stackLayout;horizontal=1;startSize=26;horizontalStack=0;resizeParent=1;resizeParentMax=0;resizeLast=0;collapsible=1;marginBottom=0;whiteSpace=wrap;html=1;" parent="1" vertex="1">
          <mxGeometry x="420" y="-828" width="190" height="98" as="geometry" />
        </mxCell>
        <mxCell id="qI_RE6lxmuwwauBpwvIy-198" value="&lt;div&gt;+Speed:Int&lt;/div&gt;&lt;div&gt;+Attack:Int&lt;/div&gt;&lt;div&gt;+Defense:Int&lt;/div&gt;" style="text;strokeColor=none;fillColor=none;align=left;verticalAlign=top;spacingLeft=4;spacingRight=4;overflow=hidden;rotatable=0;points=[[0,0.5],[1,0.5]];portConstraint=eastwest;whiteSpace=wrap;html=1;" parent="qI_RE6lxmuwwauBpwvIy-197" vertex="1">
          <mxGeometry y="26" width="190" height="64" as="geometry" />
        </mxCell>
        <mxCell id="qI_RE6lxmuwwauBpwvIy-199" value="" style="line;strokeWidth=1;fillColor=none;align=left;verticalAlign=middle;spacingTop=-1;spacingLeft=3;spacingRight=3;rotatable=0;labelPosition=right;points=[];portConstraint=eastwest;strokeColor=inherit;" parent="qI_RE6lxmuwwauBpwvIy-197" vertex="1">
          <mxGeometry y="90" width="190" height="8" as="geometry" />
        </mxCell>
        <mxCell id="qI_RE6lxmuwwauBpwvIy-200" value="JulioCesar" style="swimlane;fontStyle=1;align=center;verticalAlign=top;childLayout=stackLayout;horizontal=1;startSize=26;horizontalStack=0;resizeParent=1;resizeParentMax=0;resizeLast=0;collapsible=1;marginBottom=0;whiteSpace=wrap;html=1;" parent="1" vertex="1">
          <mxGeometry x="1700" y="-828" width="190" height="98" as="geometry" />
        </mxCell>
        <mxCell id="qI_RE6lxmuwwauBpwvIy-201" value="&lt;div&gt;+Speed:Int&lt;/div&gt;&lt;div&gt;+Attack:Int&lt;/div&gt;&lt;div&gt;+Defense:Int&lt;/div&gt;" style="text;strokeColor=none;fillColor=none;align=left;verticalAlign=top;spacingLeft=4;spacingRight=4;overflow=hidden;rotatable=0;points=[[0,0.5],[1,0.5]];portConstraint=eastwest;whiteSpace=wrap;html=1;" parent="qI_RE6lxmuwwauBpwvIy-200" vertex="1">
          <mxGeometry y="26" width="190" height="64" as="geometry" />
        </mxCell>
        <mxCell id="qI_RE6lxmuwwauBpwvIy-202" value="" style="line;strokeWidth=1;fillColor=none;align=left;verticalAlign=middle;spacingTop=-1;spacingLeft=3;spacingRight=3;rotatable=0;labelPosition=right;points=[];portConstraint=eastwest;strokeColor=inherit;" parent="qI_RE6lxmuwwauBpwvIy-200" vertex="1">
          <mxGeometry y="90" width="190" height="8" as="geometry" />
        </mxCell>
        <mxCell id="qI_RE6lxmuwwauBpwvIy-203" value="" style="endArrow=none;html=1;rounded=0;fontSize=12;startSize=8;endSize=8;curved=1;" parent="1" edge="1">
          <mxGeometry width="50" height="50" relative="1" as="geometry">
            <mxPoint x="510.00230769230757" y="-828" as="sourcePoint" />
            <mxPoint x="510" y="-870" as="targetPoint" />
          </mxGeometry>
        </mxCell>
        <mxCell id="qI_RE6lxmuwwauBpwvIy-207" value="" style="endArrow=none;html=1;rounded=0;fontSize=12;startSize=8;endSize=8;curved=1;exitX=0.579;exitY=-0.007;exitDx=0;exitDy=0;exitPerimeter=0;" parent="1" source="qI_RE6lxmuwwauBpwvIy-194" edge="1">
          <mxGeometry width="50" height="50" relative="1" as="geometry">
            <mxPoint x="1560" y="-800" as="sourcePoint" />
            <mxPoint x="1570" y="-870" as="targetPoint" />
          </mxGeometry>
        </mxCell>
        <mxCell id="qI_RE6lxmuwwauBpwvIy-208" value="" style="endArrow=none;html=1;rounded=0;fontSize=12;startSize=8;endSize=8;curved=1;exitX=0.579;exitY=0.029;exitDx=0;exitDy=0;exitPerimeter=0;" parent="1" source="qI_RE6lxmuwwauBpwvIy-200" edge="1">
          <mxGeometry width="50" height="50" relative="1" as="geometry">
            <mxPoint x="1920" y="-800" as="sourcePoint" />
            <mxPoint x="1810" y="-870" as="targetPoint" />
          </mxGeometry>
        </mxCell>
        <mxCell id="qI_RE6lxmuwwauBpwvIy-209" value="Barrack" style="swimlane;fontStyle=1;align=center;verticalAlign=top;childLayout=stackLayout;horizontal=1;startSize=26;horizontalStack=0;resizeParent=1;resizeParentMax=0;resizeLast=0;collapsible=1;marginBottom=0;whiteSpace=wrap;html=1;" parent="1" vertex="1">
          <mxGeometry x="920" y="-1400" width="190" height="98" as="geometry" />
        </mxCell>
        <mxCell id="qI_RE6lxmuwwauBpwvIy-210" value="&lt;div&gt;+ConstructionTime : int&lt;div&gt;+Type : String&lt;/div&gt;&lt;div&gt;+Cost : Resources&lt;/div&gt;&lt;div&gt;+Position: list&amp;lt;Int&amp;gt;&lt;/div&gt;&lt;/div&gt;" style="text;strokeColor=none;fillColor=none;align=left;verticalAlign=top;spacingLeft=4;spacingRight=4;overflow=hidden;rotatable=0;points=[[0,0.5],[1,0.5]];portConstraint=eastwest;whiteSpace=wrap;html=1;" parent="qI_RE6lxmuwwauBpwvIy-209" vertex="1">
          <mxGeometry y="26" width="190" height="64" as="geometry" />
        </mxCell>
        <mxCell id="qI_RE6lxmuwwauBpwvIy-211" value="" style="line;strokeWidth=1;fillColor=none;align=left;verticalAlign=middle;spacingTop=-1;spacingLeft=3;spacingRight=3;rotatable=0;labelPosition=right;points=[];portConstraint=eastwest;strokeColor=inherit;" parent="qI_RE6lxmuwwauBpwvIy-209" vertex="1">
          <mxGeometry y="90" width="190" height="8" as="geometry" />
        </mxCell>
        <mxCell id="qI_RE6lxmuwwauBpwvIy-212" value="Mill" style="swimlane;fontStyle=1;align=center;verticalAlign=top;childLayout=stackLayout;horizontal=1;startSize=26;horizontalStack=0;resizeParent=1;resizeParentMax=0;resizeLast=0;collapsible=1;marginBottom=0;whiteSpace=wrap;html=1;" parent="1" vertex="1">
          <mxGeometry x="1180" y="-1394" width="190" height="98" as="geometry" />
        </mxCell>
        <mxCell id="qI_RE6lxmuwwauBpwvIy-213" value="&lt;div&gt;+ConstructionTime : int&lt;div&gt;+Type : String&lt;/div&gt;&lt;div&gt;+Cost : Resources&lt;/div&gt;&lt;div&gt;+Position: list&amp;lt;Int&amp;gt;&lt;/div&gt;&lt;/div&gt;" style="text;strokeColor=none;fillColor=none;align=left;verticalAlign=top;spacingLeft=4;spacingRight=4;overflow=hidden;rotatable=0;points=[[0,0.5],[1,0.5]];portConstraint=eastwest;whiteSpace=wrap;html=1;" parent="qI_RE6lxmuwwauBpwvIy-212" vertex="1">
          <mxGeometry y="26" width="190" height="64" as="geometry" />
        </mxCell>
        <mxCell id="qI_RE6lxmuwwauBpwvIy-214" value="" style="line;strokeWidth=1;fillColor=none;align=left;verticalAlign=middle;spacingTop=-1;spacingLeft=3;spacingRight=3;rotatable=0;labelPosition=right;points=[];portConstraint=eastwest;strokeColor=inherit;" parent="qI_RE6lxmuwwauBpwvIy-212" vertex="1">
          <mxGeometry y="90" width="190" height="8" as="geometry" />
        </mxCell>
        <mxCell id="qI_RE6lxmuwwauBpwvIy-215" value="Farm" style="swimlane;fontStyle=1;align=center;verticalAlign=top;childLayout=stackLayout;horizontal=1;startSize=26;horizontalStack=0;resizeParent=1;resizeParentMax=0;resizeLast=0;collapsible=1;marginBottom=0;whiteSpace=wrap;html=1;" parent="1" vertex="1">
          <mxGeometry x="1420" y="-1394" width="190" height="98" as="geometry" />
        </mxCell>
        <mxCell id="qI_RE6lxmuwwauBpwvIy-216" value="&lt;div&gt;+ConstructionTime : int&lt;div&gt;+Type : String&lt;/div&gt;&lt;div&gt;+Cost : Resources&lt;/div&gt;&lt;div&gt;+Position: list&amp;lt;Int&amp;gt;&lt;/div&gt;&lt;/div&gt;" style="text;strokeColor=none;fillColor=none;align=left;verticalAlign=top;spacingLeft=4;spacingRight=4;overflow=hidden;rotatable=0;points=[[0,0.5],[1,0.5]];portConstraint=eastwest;whiteSpace=wrap;html=1;" parent="qI_RE6lxmuwwauBpwvIy-215" vertex="1">
          <mxGeometry y="26" width="190" height="64" as="geometry" />
        </mxCell>
        <mxCell id="qI_RE6lxmuwwauBpwvIy-217" value="" style="line;strokeWidth=1;fillColor=none;align=left;verticalAlign=middle;spacingTop=-1;spacingLeft=3;spacingRight=3;rotatable=0;labelPosition=right;points=[];portConstraint=eastwest;strokeColor=inherit;" parent="qI_RE6lxmuwwauBpwvIy-215" vertex="1">
          <mxGeometry y="90" width="190" height="8" as="geometry" />
        </mxCell>
        <mxCell id="qI_RE6lxmuwwauBpwvIy-221" value="StoneStorage" style="swimlane;fontStyle=1;align=center;verticalAlign=top;childLayout=stackLayout;horizontal=1;startSize=26;horizontalStack=0;resizeParent=1;resizeParentMax=0;resizeLast=0;collapsible=1;marginBottom=0;whiteSpace=wrap;html=1;" parent="1" vertex="1">
          <mxGeometry x="670" y="-1394" width="190" height="98" as="geometry" />
        </mxCell>
        <mxCell id="qI_RE6lxmuwwauBpwvIy-222" value="+ConstructionTime : int&lt;div&gt;+Type : String&lt;/div&gt;&lt;div&gt;+Cost : Resources&lt;/div&gt;&lt;div&gt;+Position: list&amp;lt;Int&amp;gt;&lt;/div&gt;" style="text;strokeColor=none;fillColor=none;align=left;verticalAlign=top;spacingLeft=4;spacingRight=4;overflow=hidden;rotatable=0;points=[[0,0.5],[1,0.5]];portConstraint=eastwest;whiteSpace=wrap;html=1;" parent="qI_RE6lxmuwwauBpwvIy-221" vertex="1">
          <mxGeometry y="26" width="190" height="64" as="geometry" />
        </mxCell>
        <mxCell id="qI_RE6lxmuwwauBpwvIy-223" value="" style="line;strokeWidth=1;fillColor=none;align=left;verticalAlign=middle;spacingTop=-1;spacingLeft=3;spacingRight=3;rotatable=0;labelPosition=right;points=[];portConstraint=eastwest;strokeColor=inherit;" parent="qI_RE6lxmuwwauBpwvIy-221" vertex="1">
          <mxGeometry y="90" width="190" height="8" as="geometry" />
        </mxCell>
        <mxCell id="qI_RE6lxmuwwauBpwvIy-224" value="GoldStorage" style="swimlane;fontStyle=1;align=center;verticalAlign=top;childLayout=stackLayout;horizontal=1;startSize=26;horizontalStack=0;resizeParent=1;resizeParentMax=0;resizeLast=0;collapsible=1;marginBottom=0;whiteSpace=wrap;html=1;" parent="1" vertex="1">
          <mxGeometry x="1700" y="-1394" width="190" height="98" as="geometry" />
        </mxCell>
        <mxCell id="qI_RE6lxmuwwauBpwvIy-225" value="+ConstructionTime : int&lt;div&gt;+Type : String&lt;/div&gt;&lt;div&gt;+Cost : Resources&lt;/div&gt;&lt;div&gt;+Position: list&amp;lt;Int&amp;gt;&lt;/div&gt;" style="text;strokeColor=none;fillColor=none;align=left;verticalAlign=top;spacingLeft=4;spacingRight=4;overflow=hidden;rotatable=0;points=[[0,0.5],[1,0.5]];portConstraint=eastwest;whiteSpace=wrap;html=1;" parent="qI_RE6lxmuwwauBpwvIy-224" vertex="1">
          <mxGeometry y="26" width="190" height="64" as="geometry" />
        </mxCell>
        <mxCell id="qI_RE6lxmuwwauBpwvIy-226" value="" style="line;strokeWidth=1;fillColor=none;align=left;verticalAlign=middle;spacingTop=-1;spacingLeft=3;spacingRight=3;rotatable=0;labelPosition=right;points=[];portConstraint=eastwest;strokeColor=inherit;" parent="qI_RE6lxmuwwauBpwvIy-224" vertex="1">
          <mxGeometry y="90" width="190" height="8" as="geometry" />
        </mxCell>
        <mxCell id="qI_RE6lxmuwwauBpwvIy-227" value="WoodStorage" style="swimlane;fontStyle=1;align=center;verticalAlign=top;childLayout=stackLayout;horizontal=1;startSize=26;horizontalStack=0;resizeParent=1;resizeParentMax=0;resizeLast=0;collapsible=1;marginBottom=0;whiteSpace=wrap;html=1;" parent="1" vertex="1">
          <mxGeometry x="430" y="-1394" width="190" height="98" as="geometry" />
        </mxCell>
        <mxCell id="qI_RE6lxmuwwauBpwvIy-228" value="+ConstructionTime : int&lt;div&gt;+Type : String&lt;/div&gt;&lt;div&gt;+Cost : Resources&lt;/div&gt;&lt;div&gt;+Position: list&amp;lt;Int&amp;gt;&lt;/div&gt;" style="text;strokeColor=none;fillColor=none;align=left;verticalAlign=top;spacingLeft=4;spacingRight=4;overflow=hidden;rotatable=0;points=[[0,0.5],[1,0.5]];portConstraint=eastwest;whiteSpace=wrap;html=1;" parent="qI_RE6lxmuwwauBpwvIy-227" vertex="1">
          <mxGeometry y="26" width="190" height="64" as="geometry" />
        </mxCell>
        <mxCell id="qI_RE6lxmuwwauBpwvIy-229" value="" style="line;strokeWidth=1;fillColor=none;align=left;verticalAlign=middle;spacingTop=-1;spacingLeft=3;spacingRight=3;rotatable=0;labelPosition=right;points=[];portConstraint=eastwest;strokeColor=inherit;" parent="qI_RE6lxmuwwauBpwvIy-227" vertex="1">
          <mxGeometry y="90" width="190" height="8" as="geometry" />
        </mxCell>
        <mxCell id="qI_RE6lxmuwwauBpwvIy-230" value="" style="endArrow=none;html=1;rounded=0;fontSize=12;startSize=8;endSize=8;curved=1;" parent="1" edge="1">
          <mxGeometry width="50" height="50" relative="1" as="geometry">
            <mxPoint x="490" y="-1460" as="sourcePoint" />
            <mxPoint x="1790" y="-1460" as="targetPoint" />
          </mxGeometry>
        </mxCell>
        <mxCell id="qI_RE6lxmuwwauBpwvIy-231" value="" style="endArrow=none;html=1;rounded=0;fontSize=12;startSize=8;endSize=8;curved=1;exitX=0.312;exitY=-0.009;exitDx=0;exitDy=0;exitPerimeter=0;" parent="1" source="qI_RE6lxmuwwauBpwvIy-227" edge="1">
          <mxGeometry width="50" height="50" relative="1" as="geometry">
            <mxPoint x="490" y="-1400" as="sourcePoint" />
            <mxPoint x="490" y="-1460" as="targetPoint" />
          </mxGeometry>
        </mxCell>
        <mxCell id="qI_RE6lxmuwwauBpwvIy-232" value="" style="endArrow=none;html=1;rounded=0;fontSize=12;startSize=8;endSize=8;curved=1;exitX=0.529;exitY=-0.009;exitDx=0;exitDy=0;exitPerimeter=0;" parent="1" source="qI_RE6lxmuwwauBpwvIy-221" edge="1">
          <mxGeometry width="50" height="50" relative="1" as="geometry">
            <mxPoint x="770" y="-1400" as="sourcePoint" />
            <mxPoint x="770" y="-1460" as="targetPoint" />
          </mxGeometry>
        </mxCell>
        <mxCell id="qI_RE6lxmuwwauBpwvIy-233" value="" style="endArrow=none;html=1;rounded=0;fontSize=12;startSize=8;endSize=8;curved=1;exitX=0.5;exitY=0;exitDx=0;exitDy=0;" parent="1" source="qI_RE6lxmuwwauBpwvIy-209" edge="1">
          <mxGeometry width="50" height="50" relative="1" as="geometry">
            <mxPoint x="1014.6700000000001" y="-1390" as="sourcePoint" />
            <mxPoint x="1014.6700000000001" y="-1460" as="targetPoint" />
          </mxGeometry>
        </mxCell>
        <mxCell id="qI_RE6lxmuwwauBpwvIy-234" value="" style="endArrow=none;html=1;rounded=0;fontSize=12;startSize=8;endSize=8;curved=1;exitX=0.316;exitY=0.044;exitDx=0;exitDy=0;exitPerimeter=0;" parent="1" edge="1">
          <mxGeometry width="50" height="50" relative="1" as="geometry">
            <mxPoint x="1274.29" y="-1394" as="sourcePoint" />
            <mxPoint x="1274" y="-1460" as="targetPoint" />
          </mxGeometry>
        </mxCell>
        <mxCell id="qI_RE6lxmuwwauBpwvIy-235" value="" style="endArrow=none;html=1;rounded=0;fontSize=12;startSize=8;endSize=8;curved=1;" parent="1" edge="1">
          <mxGeometry width="50" height="50" relative="1" as="geometry">
            <mxPoint x="1520" y="-1390" as="sourcePoint" />
            <mxPoint x="1520" y="-1460" as="targetPoint" />
          </mxGeometry>
        </mxCell>
        <mxCell id="qI_RE6lxmuwwauBpwvIy-236" value="" style="endArrow=none;html=1;rounded=0;fontSize=12;startSize=8;endSize=8;curved=1;exitX=0.476;exitY=0.007;exitDx=0;exitDy=0;exitPerimeter=0;" parent="1" source="qI_RE6lxmuwwauBpwvIy-224" edge="1">
          <mxGeometry width="50" height="50" relative="1" as="geometry">
            <mxPoint x="1790" y="-1400" as="sourcePoint" />
            <mxPoint x="1790" y="-1460" as="targetPoint" />
          </mxGeometry>
        </mxCell>
        <mxCell id="qI_RE6lxmuwwauBpwvIy-237" value="" style="endArrow=classic;html=1;rounded=0;fontSize=12;startSize=8;endSize=8;curved=1;entryX=0.5;entryY=1;entryDx=0;entryDy=0;" parent="1" target="qI_RE6lxmuwwauBpwvIy-107" edge="1">
          <mxGeometry width="50" height="50" relative="1" as="geometry">
            <mxPoint x="1095" y="-1460" as="sourcePoint" />
            <mxPoint x="1090" y="-1440" as="targetPoint" />
          </mxGeometry>
        </mxCell>
        <mxCell id="sNLrsBXaFwUYlHbs4YbA-5" value="" style="whiteSpace=wrap;html=1;aspect=fixed;" vertex="1" parent="1">
          <mxGeometry x="-920" y="-100" width="310" height="310" as="geometry" />
        </mxCell>
        <mxCell id="sNLrsBXaFwUYlHbs4YbA-6" value="" style="endArrow=none;html=1;rounded=0;fontSize=12;startSize=8;endSize=8;curved=1;entryX=0;entryY=0.188;entryDx=0;entryDy=0;entryPerimeter=0;exitX=0.998;exitY=0.187;exitDx=0;exitDy=0;exitPerimeter=0;" edge="1" parent="1" source="sNLrsBXaFwUYlHbs4YbA-5" target="sNLrsBXaFwUYlHbs4YbA-5">
          <mxGeometry width="50" height="50" relative="1" as="geometry">
            <mxPoint x="-605" y="-50" as="sourcePoint" />
            <mxPoint x="-950" y="80" as="targetPoint" />
          </mxGeometry>
        </mxCell>
        <mxCell id="sNLrsBXaFwUYlHbs4YbA-7" value="" style="endArrow=none;html=1;rounded=0;fontSize=12;startSize=8;endSize=8;curved=1;exitX=0.5;exitY=1;exitDx=0;exitDy=0;" edge="1" parent="1" source="sNLrsBXaFwUYlHbs4YbA-5">
          <mxGeometry width="50" height="50" relative="1" as="geometry">
            <mxPoint x="-1000" y="130" as="sourcePoint" />
            <mxPoint x="-765" y="-40" as="targetPoint" />
          </mxGeometry>
        </mxCell>
        <mxCell id="sNLrsBXaFwUYlHbs4YbA-8" value="&lt;div style=&quot;&quot;&gt;&lt;br&gt;&lt;/div&gt;" style="text;html=1;align=left;verticalAlign=middle;whiteSpace=wrap;rounded=0;fontSize=16;" vertex="1" parent="1">
          <mxGeometry x="-890" width="30" height="60" as="geometry" />
        </mxCell>
        <mxCell id="sNLrsBXaFwUYlHbs4YbA-9" value="&lt;span style=&quot;font-size: 12px;&quot;&gt;Fachada&lt;/span&gt;" style="text;html=1;align=center;verticalAlign=middle;whiteSpace=wrap;rounded=0;fontSize=16;" vertex="1" parent="1">
          <mxGeometry x="-795" y="-90" width="60" height="30" as="geometry" />
        </mxCell>
        <mxCell id="sNLrsBXaFwUYlHbs4YbA-11" value="Debe conocer mapa,metodos&lt;div&gt;acciones, jugadores&amp;nbsp;&lt;/div&gt;" style="text;html=1;align=center;verticalAlign=middle;whiteSpace=wrap;rounded=0;fontSize=16;" vertex="1" parent="1">
          <mxGeometry x="-870" y="19" width="60" height="30" as="geometry" />
        </mxCell>
        <mxCell id="sNLrsBXaFwUYlHbs4YbA-17" value="" style="whiteSpace=wrap;html=1;aspect=fixed;" vertex="1" parent="1">
          <mxGeometry x="-1760" y="-90" width="310" height="310" as="geometry" />
        </mxCell>
        <mxCell id="sNLrsBXaFwUYlHbs4YbA-18" value="" style="endArrow=none;html=1;rounded=0;fontSize=12;startSize=8;endSize=8;curved=1;entryX=0;entryY=0.188;entryDx=0;entryDy=0;entryPerimeter=0;exitX=0.998;exitY=0.187;exitDx=0;exitDy=0;exitPerimeter=0;" edge="1" parent="1" source="sNLrsBXaFwUYlHbs4YbA-17" target="sNLrsBXaFwUYlHbs4YbA-17">
          <mxGeometry width="50" height="50" relative="1" as="geometry">
            <mxPoint x="-1445" y="-40" as="sourcePoint" />
            <mxPoint x="-1790" y="90" as="targetPoint" />
          </mxGeometry>
        </mxCell>
        <mxCell id="sNLrsBXaFwUYlHbs4YbA-19" value="" style="endArrow=none;html=1;rounded=0;fontSize=12;startSize=8;endSize=8;curved=1;exitX=0.5;exitY=1;exitDx=0;exitDy=0;" edge="1" parent="1" source="sNLrsBXaFwUYlHbs4YbA-17">
          <mxGeometry width="50" height="50" relative="1" as="geometry">
            <mxPoint x="-1840" y="140" as="sourcePoint" />
            <mxPoint x="-1605" y="-30" as="targetPoint" />
          </mxGeometry>
        </mxCell>
        <mxCell id="sNLrsBXaFwUYlHbs4YbA-20" value="&lt;div style=&quot;&quot;&gt;&lt;br&gt;&lt;/div&gt;" style="text;html=1;align=left;verticalAlign=middle;whiteSpace=wrap;rounded=0;fontSize=16;" vertex="1" parent="1">
          <mxGeometry x="-1760" y="-30" width="30" height="60" as="geometry" />
        </mxCell>
        <mxCell id="sNLrsBXaFwUYlHbs4YbA-21" value="&lt;span style=&quot;font-size: 12px;&quot;&gt;Civilization&lt;/span&gt;" style="text;html=1;align=center;verticalAlign=middle;whiteSpace=wrap;rounded=0;fontSize=16;" vertex="1" parent="1">
          <mxGeometry x="-1635" y="-80" width="60" height="30" as="geometry" />
        </mxCell>
        <mxCell id="sNLrsBXaFwUYlHbs4YbA-22" value="Debe conocer, vikingos,romanos y cordobeses" style="text;html=1;align=center;verticalAlign=middle;whiteSpace=wrap;rounded=0;fontSize=16;" vertex="1" parent="1">
          <mxGeometry x="-1710" y="30" width="60" height="30" as="geometry" />
        </mxCell>
        <mxCell id="sNLrsBXaFwUYlHbs4YbA-23" value="Civilization" style="swimlane;fontStyle=1;align=center;verticalAlign=top;childLayout=stackLayout;horizontal=1;startSize=26;horizontalStack=0;resizeParent=1;resizeParentMax=0;resizeLast=0;collapsible=1;marginBottom=0;whiteSpace=wrap;html=1;" vertex="1" parent="1">
          <mxGeometry x="950" y="-520" width="190" height="108" as="geometry" />
        </mxCell>
        <mxCell id="sNLrsBXaFwUYlHbs4YbA-24" value="+Nombre:string&lt;div&gt;+TipoDeUnidadUnica:string&lt;/div&gt;&lt;div&gt;+Bonificacion:string&lt;/div&gt;" style="text;strokeColor=none;fillColor=none;align=left;verticalAlign=top;spacingLeft=4;spacingRight=4;overflow=hidden;rotatable=0;points=[[0,0.5],[1,0.5]];portConstraint=eastwest;whiteSpace=wrap;html=1;" vertex="1" parent="sNLrsBXaFwUYlHbs4YbA-23">
          <mxGeometry y="26" width="190" height="74" as="geometry" />
        </mxCell>
        <mxCell id="sNLrsBXaFwUYlHbs4YbA-25" value="" style="line;strokeWidth=1;fillColor=none;align=left;verticalAlign=middle;spacingTop=-1;spacingLeft=3;spacingRight=3;rotatable=0;labelPosition=right;points=[];portConstraint=eastwest;strokeColor=inherit;" vertex="1" parent="sNLrsBXaFwUYlHbs4YbA-23">
          <mxGeometry y="100" width="190" height="8" as="geometry" />
        </mxCell>
        <mxCell id="sNLrsBXaFwUYlHbs4YbA-26" value="" style="endArrow=classic;html=1;rounded=0;fontSize=12;startSize=8;endSize=8;curved=1;entryX=0.5;entryY=1;entryDx=0;entryDy=0;" edge="1" parent="1" target="sNLrsBXaFwUYlHbs4YbA-23">
          <mxGeometry width="50" height="50" relative="1" as="geometry">
            <mxPoint x="1045" y="-250" as="sourcePoint" />
            <mxPoint x="1010" y="-320" as="targetPoint" />
          </mxGeometry>
        </mxCell>
        <mxCell id="sNLrsBXaFwUYlHbs4YbA-27" value="Cordobeses" style="swimlane;fontStyle=1;align=center;verticalAlign=top;childLayout=stackLayout;horizontal=1;startSize=26;horizontalStack=0;resizeParent=1;resizeParentMax=0;resizeLast=0;collapsible=1;marginBottom=0;whiteSpace=wrap;html=1;" vertex="1" parent="1">
          <mxGeometry x="950" y="-250" width="190" height="98" as="geometry" />
        </mxCell>
        <mxCell id="sNLrsBXaFwUYlHbs4YbA-28" value="CAMBIAR" style="text;strokeColor=none;fillColor=none;align=left;verticalAlign=top;spacingLeft=4;spacingRight=4;overflow=hidden;rotatable=0;points=[[0,0.5],[1,0.5]];portConstraint=eastwest;whiteSpace=wrap;html=1;" vertex="1" parent="sNLrsBXaFwUYlHbs4YbA-27">
          <mxGeometry y="26" width="190" height="64" as="geometry" />
        </mxCell>
        <mxCell id="sNLrsBXaFwUYlHbs4YbA-29" value="" style="line;strokeWidth=1;fillColor=none;align=left;verticalAlign=middle;spacingTop=-1;spacingLeft=3;spacingRight=3;rotatable=0;labelPosition=right;points=[];portConstraint=eastwest;strokeColor=inherit;" vertex="1" parent="sNLrsBXaFwUYlHbs4YbA-27">
          <mxGeometry y="90" width="190" height="8" as="geometry" />
        </mxCell>
        <mxCell id="sNLrsBXaFwUYlHbs4YbA-30" value="Vikingos" style="swimlane;fontStyle=1;align=center;verticalAlign=top;childLayout=stackLayout;horizontal=1;startSize=26;horizontalStack=0;resizeParent=1;resizeParentMax=0;resizeLast=0;collapsible=1;marginBottom=0;whiteSpace=wrap;html=1;" vertex="1" parent="1">
          <mxGeometry x="690" y="-250" width="190" height="98" as="geometry" />
        </mxCell>
        <mxCell id="sNLrsBXaFwUYlHbs4YbA-31" value="CAMBIAR" style="text;strokeColor=none;fillColor=none;align=left;verticalAlign=top;spacingLeft=4;spacingRight=4;overflow=hidden;rotatable=0;points=[[0,0.5],[1,0.5]];portConstraint=eastwest;whiteSpace=wrap;html=1;" vertex="1" parent="sNLrsBXaFwUYlHbs4YbA-30">
          <mxGeometry y="26" width="190" height="64" as="geometry" />
        </mxCell>
        <mxCell id="sNLrsBXaFwUYlHbs4YbA-32" value="" style="line;strokeWidth=1;fillColor=none;align=left;verticalAlign=middle;spacingTop=-1;spacingLeft=3;spacingRight=3;rotatable=0;labelPosition=right;points=[];portConstraint=eastwest;strokeColor=inherit;" vertex="1" parent="sNLrsBXaFwUYlHbs4YbA-30">
          <mxGeometry y="90" width="190" height="8" as="geometry" />
        </mxCell>
        <mxCell id="sNLrsBXaFwUYlHbs4YbA-33" value="Romanos" style="swimlane;fontStyle=1;align=center;verticalAlign=top;childLayout=stackLayout;horizontal=1;startSize=26;horizontalStack=0;resizeParent=1;resizeParentMax=0;resizeLast=0;collapsible=1;marginBottom=0;whiteSpace=wrap;html=1;" vertex="1" parent="1">
          <mxGeometry x="1220" y="-250" width="190" height="98" as="geometry" />
        </mxCell>
        <mxCell id="sNLrsBXaFwUYlHbs4YbA-34" value="CAMBIAR" style="text;strokeColor=none;fillColor=none;align=left;verticalAlign=top;spacingLeft=4;spacingRight=4;overflow=hidden;rotatable=0;points=[[0,0.5],[1,0.5]];portConstraint=eastwest;whiteSpace=wrap;html=1;" vertex="1" parent="sNLrsBXaFwUYlHbs4YbA-33">
          <mxGeometry y="26" width="190" height="64" as="geometry" />
        </mxCell>
        <mxCell id="sNLrsBXaFwUYlHbs4YbA-35" value="" style="line;strokeWidth=1;fillColor=none;align=left;verticalAlign=middle;spacingTop=-1;spacingLeft=3;spacingRight=3;rotatable=0;labelPosition=right;points=[];portConstraint=eastwest;strokeColor=inherit;" vertex="1" parent="sNLrsBXaFwUYlHbs4YbA-33">
          <mxGeometry y="90" width="190" height="8" as="geometry" />
        </mxCell>
        <mxCell id="sNLrsBXaFwUYlHbs4YbA-36" value="" style="endArrow=none;html=1;rounded=0;fontSize=12;startSize=8;endSize=8;curved=1;" edge="1" parent="1">
          <mxGeometry width="50" height="50" relative="1" as="geometry">
            <mxPoint x="770" y="-310" as="sourcePoint" />
            <mxPoint x="1050" y="-310" as="targetPoint" />
          </mxGeometry>
        </mxCell>
        <mxCell id="sNLrsBXaFwUYlHbs4YbA-37" value="" style="endArrow=none;html=1;rounded=0;fontSize=12;startSize=8;endSize=8;curved=1;exitX=0.426;exitY=0.003;exitDx=0;exitDy=0;exitPerimeter=0;" edge="1" parent="1" source="sNLrsBXaFwUYlHbs4YbA-30">
          <mxGeometry width="50" height="50" relative="1" as="geometry">
            <mxPoint x="860" y="-220" as="sourcePoint" />
            <mxPoint x="770" y="-310" as="targetPoint" />
          </mxGeometry>
        </mxCell>
        <mxCell id="sNLrsBXaFwUYlHbs4YbA-38" value="" style="endArrow=none;html=1;rounded=0;fontSize=12;startSize=8;endSize=8;curved=1;" edge="1" parent="1">
          <mxGeometry width="50" height="50" relative="1" as="geometry">
            <mxPoint x="1330" y="-310" as="sourcePoint" />
            <mxPoint x="1050" y="-310" as="targetPoint" />
          </mxGeometry>
        </mxCell>
        <mxCell id="sNLrsBXaFwUYlHbs4YbA-39" value="" style="endArrow=none;html=1;rounded=0;fontSize=12;startSize=8;endSize=8;curved=1;exitX=0.579;exitY=0;exitDx=0;exitDy=0;exitPerimeter=0;" edge="1" parent="1" source="sNLrsBXaFwUYlHbs4YbA-33">
          <mxGeometry width="50" height="50" relative="1" as="geometry">
            <mxPoint x="1200" y="-220" as="sourcePoint" />
            <mxPoint x="1330" y="-310" as="targetPoint" />
          </mxGeometry>
        </mxCell>
        <mxCell id="sNLrsBXaFwUYlHbs4YbA-40" value="" style="endArrow=none;dashed=1;html=1;rounded=0;fontSize=12;startSize=8;endSize=8;curved=1;strokeWidth=9;" edge="1" parent="1">
          <mxGeometry width="50" height="50" relative="1" as="geometry">
            <mxPoint x="2160" y="-1920" as="sourcePoint" />
            <mxPoint x="-2320" y="-1920" as="targetPoint" />
          </mxGeometry>
        </mxCell>
        <mxCell id="sNLrsBXaFwUYlHbs4YbA-41" value="" style="endArrow=none;dashed=1;html=1;rounded=0;fontSize=12;startSize=8;endSize=8;curved=1;strokeWidth=9;" edge="1" parent="1">
          <mxGeometry width="50" height="50" relative="1" as="geometry">
            <mxPoint x="2140" y="570" as="sourcePoint" />
            <mxPoint x="-2340" y="570" as="targetPoint" />
          </mxGeometry>
        </mxCell>
      </root>
    </mxGraphModel>
  </diagram>
</mxfile>
